<svg version="1.1" viewBox="0.0 0.0 1077.4094488188975 276.2283464566929" fill="none" stroke="none" stroke-linecap="square" stroke-miterlimit="10" xmlns:xlink="http://www.w3.org/1999/xlink" xmlns="http://www.w3.org/2000/svg"><clipPath id="p.0"><path d="m0 0l1077.4094 0l0 276.22833l-1077.4094 0l0 -276.22833z" clip-rule="nonzero"/></clipPath><g clip-path="url(#p.0)"><path fill="#000000" fill-opacity="0.0" d="m0 0l1077.4094 0l0 276.22833l-1077.4094 0z" fill-rule="evenodd"/><path fill="#f1c232" d="m150.81627 86.03412l144.72215 0l35.277863 40.787407l-35.277863 40.78739l-144.72215 0l35.277847 -40.78739z" fill-rule="evenodd"/><path stroke="#000000" stroke-width="1.0" stroke-linejoin="round" stroke-linecap="butt" d="m150.81627 86.03412l144.72215 0l35.277863 40.787407l-35.277863 40.78739l-144.72215 0l35.277847 -40.78739z" fill-rule="evenodd"/><path fill="#000000" d="m220.89491 121.804016l0 -1.546875l3.515625 0l0 13.484375l-1.71875 0l0 -11.9375l-1.796875 0zm8.610626 8.3125q0.1875 1.0625 0.859375 1.640625q0.6875 0.578125 1.84375 0.578125q1.546875 0 2.28125 -1.203125q0.734375 -1.21875 0.703125 -4.09375q-0.390625 0.84375 -1.3125 1.328125q-0.90625 0.46875 -2.03125 0.46875q-1.25 0 -2.234375 -0.515625q-0.96875 -0.515625 -1.53125 -1.5q-0.5625 -0.984375 -0.5625 -2.390625q0 -2.0 1.15625 -3.21875q1.15625 -1.21875 3.28125 -1.21875q2.609375 0 3.65625 1.703125q1.0625 1.6875 1.0625 5.046875q0 2.359375 -0.421875 3.890625q-0.40625 1.53125 -1.40625 2.328125q-1.0 0.796875 -2.734375 0.796875q-1.90625 0 -2.96875 -1.015625q-1.0625 -1.03125 -1.21875 -2.625l1.578125 0zm2.625 -2.71875q1.25 0 2.046875 -0.765625q0.8125 -0.78125 0.8125 -2.109375q0 -1.390625 -0.796875 -2.25q-0.78125 -0.859375 -2.1875 -0.859375q-1.3125 0 -2.09375 0.828125q-0.765625 0.8125 -0.765625 2.15625q0 1.359375 0.765625 2.1875q0.765625 0.8125 2.21875 0.8125zm9.128433 2.71875q0.1875 1.0625 0.859375 1.640625q0.6875 0.578125 1.84375 0.578125q1.546875 0 2.28125 -1.203125q0.734375 -1.21875 0.703125 -4.09375q-0.390625 0.84375 -1.3125 1.328125q-0.90625 0.46875 -2.03125 0.46875q-1.25 0 -2.234375 -0.515625q-0.96875 -0.515625 -1.53125 -1.5q-0.5625 -0.984375 -0.5625 -2.390625q0 -2.0 1.15625 -3.21875q1.15625 -1.21875 3.28125 -1.21875q2.609375 0 3.65625 1.703125q1.0625 1.6875 1.0625 5.046875q0 2.359375 -0.421875 3.890625q-0.40625 1.53125 -1.40625 2.328125q-1.0 0.796875 -2.734375 0.796875q-1.90625 0 -2.96875 -1.015625q-1.0625 -1.03125 -1.21875 -2.625l1.578125 0zm2.625 -2.71875q1.25 0 2.046875 -0.765625q0.8125 -0.78125 0.8125 -2.109375q0 -1.390625 -0.796875 -2.25q-0.78125 -0.859375 -2.1875 -0.859375q-1.3125 0 -2.09375 0.828125q-0.765625 0.8125 -0.765625 2.15625q0 1.359375 0.765625 2.1875q0.765625 0.8125 2.21875 0.8125zm9.409683 -0.671875q-1.046875 -0.40625 -1.609375 -1.1875q-0.5625 -0.796875 -0.5625 -1.90625q0 -1.015625 0.5 -1.828125q0.515625 -0.8125 1.5 -1.28125q1.0 -0.46875 2.421875 -0.46875q1.4218903 0 2.4218903 0.46875q1.0 0.46875 1.5 1.28125q0.515625 0.8125 0.515625 1.828125q0 1.078125 -0.578125 1.890625q-0.578125 0.8125 -1.578125 1.203125q1.15625 0.359375 1.828125 1.25q0.6875 0.875 0.6875 2.125q0 1.21875 -0.59375 2.125q-0.59375 0.90625 -1.6875 1.40625q-1.09375 0.484375 -2.5156403 0.484375q-1.421875 0 -2.5 -0.484375q-1.0625 -0.5 -1.65625 -1.40625q-0.59375 -0.90625 -0.59375 -2.125q0 -1.25 0.671875 -2.140625q0.671875 -0.890625 1.828125 -1.234375zm5.0468903 -2.890625q0 -1.140625 -0.75 -1.75q-0.734375 -0.625 -2.0468903 -0.625q-1.28125 0 -2.03125 0.625q-0.75 0.609375 -0.75 1.765625q0 1.046875 0.765625 1.6875q0.78125 0.625 2.015625 0.625q1.2500153 0 2.0156403 -0.640625q0.78125 -0.640625 0.78125 -1.6875zm-2.7968903 3.640625q-1.375 0 -2.25 0.640625q-0.875 0.640625 -0.875 1.9375q0 1.1875 0.84375 1.921875q0.84375 0.71875 2.28125 0.71875q1.4375153 0 2.2812653 -0.71875q0.84375 -0.734375 0.84375 -1.921875q0 -1.25 -0.859375 -1.90625q-0.859375 -0.671875 -2.2656403 -0.671875z" fill-rule="nonzero"/><path fill="#f1c232" d="m298.8252 86.03412l144.72214 0l35.277863 40.787407l-35.277863 40.78739l-144.72214 0l35.277832 -40.78739z" fill-rule="evenodd"/><path stroke="#000000" stroke-width="1.0" stroke-linejoin="round" stroke-linecap="butt" d="m298.8252 86.03412l144.72214 0l35.277863 40.787407l-35.277863 40.78739l-144.72214 0l35.277832 -40.78739z" fill-rule="evenodd"/><path fill="#000000" d="m368.91315 121.804016l0 -1.546875l3.515625 0l0 13.484375l-1.71875 0l0 -11.9375l-1.796875 0zm8.610626 8.3125q0.1875 1.0625 0.859375 1.640625q0.6875 0.578125 1.84375 0.578125q1.546875 0 2.28125 -1.203125q0.734375 -1.21875 0.703125 -4.09375q-0.390625 0.84375 -1.3125 1.328125q-0.90625 0.46875 -2.03125 0.46875q-1.25 0 -2.234375 -0.515625q-0.96875 -0.515625 -1.53125 -1.5q-0.5625 -0.984375 -0.5625 -2.390625q0 -2.0 1.15625 -3.21875q1.15625 -1.21875 3.28125 -1.21875q2.609375 0 3.65625 1.703125q1.0625 1.6875 1.0625 5.046875q0 2.359375 -0.421875 3.890625q-0.40625 1.53125 -1.40625 2.328125q-1.0 0.796875 -2.734375 0.796875q-1.90625 0 -2.96875 -1.015625q-1.0625 -1.03125 -1.21875 -2.625l1.578125 0zm2.625 -2.71875q1.25 0 2.046875 -0.765625q0.8125 -0.78125 0.8125 -2.109375q0 -1.390625 -0.796875 -2.25q-0.78125 -0.859375 -2.1875 -0.859375q-1.3125 0 -2.09375 0.828125q-0.765625 0.8125 -0.765625 2.15625q0 1.359375 0.765625 2.1875q0.765625 0.8125 2.21875 0.8125zm9.1284485 2.71875q0.1875 1.0625 0.859375 1.640625q0.6875 0.578125 1.84375 0.578125q1.546875 0 2.28125 -1.203125q0.734375 -1.21875 0.703125 -4.09375q-0.390625 0.84375 -1.3125 1.328125q-0.90625 0.46875 -2.03125 0.46875q-1.25 0 -2.234375 -0.515625q-0.96875 -0.515625 -1.53125 -1.5q-0.5625 -0.984375 -0.5625 -2.390625q0 -2.0 1.15625 -3.21875q1.15625 -1.21875 3.28125 -1.21875q2.609375 0 3.65625 1.703125q1.0625 1.6875 1.0625 5.046875q0 2.359375 -0.421875 3.890625q-0.40625 1.53125 -1.40625 2.328125q-1.0 0.796875 -2.734375 0.796875q-1.90625 0 -2.96875 -1.015625q-1.0625 -1.03125 -1.21875 -2.625l1.578125 0zm2.625 -2.71875q1.25 0 2.046875 -0.765625q0.8125 -0.78125 0.8125 -2.109375q0 -1.390625 -0.796875 -2.25q-0.78125 -0.859375 -2.1875 -0.859375q-1.3125 0 -2.09375 0.828125q-0.765625 0.8125 -0.765625 2.15625q0 1.359375 0.765625 2.1875q0.765625 0.8125 2.21875 0.8125zm9.128418 2.71875q0.1875 1.0625 0.859375 1.640625q0.6875 0.578125 1.84375 0.578125q1.546875 0 2.28125 -1.203125q0.734375 -1.21875 0.703125 -4.09375q-0.390625 0.84375 -1.3125 1.328125q-0.90625 0.46875 -2.03125 0.46875q-1.25 0 -2.234375 -0.515625q-0.96875 -0.515625 -1.53125 -1.5q-0.5625 -0.984375 -0.5625 -2.390625q0 -2.0 1.15625 -3.21875q1.15625 -1.21875 3.28125 -1.21875q2.609375 0 3.65625 1.703125q1.0625 1.6875 1.0625 5.046875q0 2.359375 -0.421875 3.890625q-0.40625 1.53125 -1.40625 2.328125q-1.0 0.796875 -2.734375 0.796875q-1.90625 0 -2.96875 -1.015625q-1.0625 -1.03125 -1.21875 -2.625l1.578125 0zm2.625 -2.71875q1.25 0 2.046875 -0.765625q0.8125 -0.78125 0.8125 -2.109375q0 -1.390625 -0.796875 -2.25q-0.78125 -0.859375 -2.1875 -0.859375q-1.3125 0 -2.09375 0.828125q-0.765625 0.8125 -0.765625 2.15625q0 1.359375 0.765625 2.1875q0.765625 0.8125 2.21875 0.8125z" fill-rule="nonzero"/><path fill="#f1c232" d="m447.61804 86.03412l144.72217 0l35.277832 40.787407l-35.277832 40.78739l-144.72217 0l35.277863 -40.78739z" fill-rule="evenodd"/><path stroke="#000000" stroke-width="1.0" stroke-linejoin="round" stroke-linecap="butt" d="m447.61804 86.03412l144.72217 0l35.277832 40.787407l-35.277832 40.78739l-144.72217 0l35.277863 -40.78739z" fill-rule="evenodd"/><path fill="#000000" d="m515.6147 132.38214q2.375 -1.90625 3.703125 -3.125q1.34375 -1.21875 2.265625 -2.546875q0.9375 -1.34375 0.9375 -2.625q0 -1.21875 -0.59375 -1.921875q-0.59375 -0.703125 -1.890625 -0.703125q-1.265625 0 -1.96875 0.796875q-0.703125 0.796875 -0.75 2.125l-1.65625 0q0.078125 -2.09375 1.265625 -3.234375q1.203125 -1.140625 3.09375 -1.140625q1.921875 0 3.046875 1.0625q1.125 1.0625 1.125 2.9375q0 1.546875 -0.921875 3.015625q-0.921875 1.453125 -2.109375 2.5625q-1.171875 1.109375 -3.0 2.59375l6.421875 0l0 1.40625l-8.96875 0l0 -1.203125zm10.93042 -5.53125q0 -3.203125 1.046875 -5.0q1.046875 -1.796875 3.65625 -1.796875q2.59375 0 3.640625 1.796875q1.046875 1.796875 1.046875 5.0q0 3.265625 -1.046875 5.078125q-1.046875 1.8125 -3.640625 1.8125q-2.609375 0 -3.65625 -1.8125q-1.046875 -1.8125 -1.046875 -5.078125zm7.703125 0q0 -1.609375 -0.21875 -2.734375q-0.203125 -1.140625 -0.875 -1.828125q-0.65625 -0.6875 -1.90625 -0.6875q-1.265625 0 -1.9375 0.6875q-0.65625 0.6875 -0.875 1.828125q-0.21875 1.125 -0.21875 2.734375q0 1.6875 0.21875 2.828125q0.21875 1.140625 0.875 1.828125q0.671875 0.6875 1.9375 0.6875q1.25 0 1.90625 -0.6875q0.671875 -0.6875 0.875 -1.828125q0.21875 -1.140625 0.21875 -2.828125zm4.0130005 0q0 -3.203125 1.046875 -5.0q1.046875 -1.796875 3.65625 -1.796875q2.59375 0 3.640625 1.796875q1.046875 1.796875 1.046875 5.0q0 3.265625 -1.046875 5.078125q-1.046875 1.8125 -3.640625 1.8125q-2.609375 0 -3.65625 -1.8125q-1.046875 -1.8125 -1.046875 -5.078125zm7.703125 0q0 -1.609375 -0.21875 -2.734375q-0.203125 -1.140625 -0.875 -1.828125q-0.65625 -0.6875 -1.90625 -0.6875q-1.265625 0 -1.9375 0.6875q-0.65625 0.6875 -0.875 1.828125q-0.21875 1.125 -0.21875 2.734375q0 1.6875 0.21875 2.828125q0.21875 1.140625 0.875 1.828125q0.671875 0.6875 1.9375 0.6875q1.25 0 1.90625 -0.6875q0.671875 -0.6875 0.875 -1.828125q0.21875 -1.140625 0.21875 -2.828125zm6.2005005 3.265625q0.1875 1.0625 0.859375 1.640625q0.6875 0.578125 1.84375 0.578125q1.546875 0 2.28125 -1.203125q0.734375 -1.21875 0.703125 -4.09375q-0.390625 0.84375 -1.3125 1.328125q-0.90625 0.46875 -2.03125 0.46875q-1.25 0 -2.234375 -0.515625q-0.96875 -0.515625 -1.53125 -1.5q-0.5625 -0.984375 -0.5625 -2.390625q0 -2.0 1.15625 -3.21875q1.15625 -1.21875 3.28125 -1.21875q2.609375 0 3.65625 1.703125q1.0625 1.6875 1.0625 5.046875q0 2.359375 -0.421875 3.890625q-0.40625 1.53125 -1.40625 2.328125q-1.0 0.796875 -2.734375 0.796875q-1.90625 0 -2.96875 -1.015625q-1.0625 -1.03125 -1.21875 -2.625l1.578125 0zm2.625 -2.71875q1.25 0 2.046875 -0.765625q0.8125 -0.78125 0.8125 -2.109375q0 -1.390625 -0.796875 -2.25q-0.78125 -0.859375 -2.1875 -0.859375q-1.3125 0 -2.09375 0.828125q-0.765625 0.8125 -0.765625 2.15625q0 1.359375 0.765625 2.1875q0.765625 0.8125 2.21875 0.8125z" fill-rule="nonzero"/><path fill="#f1c232" d="m595.62695 86.03412l144.72217 0l35.277832 40.787407l-35.277832 40.78739l-144.72217 0l35.277832 -40.78739z" fill-rule="evenodd"/><path stroke="#000000" stroke-width="1.0" stroke-linejoin="round" stroke-linecap="butt" d="m595.62695 86.03412l144.72217 0l35.277832 40.787407l-35.277832 40.78739l-144.72217 0l35.277832 -40.78739z" fill-rule="evenodd"/><path fill="#000000" d="m666.5153 132.38214q2.375 -1.90625 3.703125 -3.125q1.34375 -1.21875 2.265625 -2.546875q0.9375 -1.34375 0.9375 -2.625q0 -1.21875 -0.59375 -1.921875q-0.59375 -0.703125 -1.890625 -0.703125q-1.265625 0 -1.96875 0.796875q-0.703125 0.796875 -0.75 2.125l-1.65625 0q0.078125 -2.09375 1.265625 -3.234375q1.203125 -1.140625 3.09375 -1.140625q1.921875 0 3.046875 1.0625q1.125 1.0625 1.125 2.9375q0 1.546875 -0.921875 3.015625q-0.921875 1.453125 -2.109375 2.5625q-1.171875 1.109375 -3.0 2.59375l6.421875 0l0 1.40625l-8.96875 0l0 -1.203125zm10.93042 -5.53125q0 -3.203125 1.046875 -5.0q1.046875 -1.796875 3.65625 -1.796875q2.59375 0 3.640625 1.796875q1.046875 1.796875 1.046875 5.0q0 3.265625 -1.046875 5.078125q-1.046875 1.8125 -3.640625 1.8125q-2.609375 0 -3.65625 -1.8125q-1.046875 -1.8125 -1.046875 -5.078125zm7.703125 0q0 -1.609375 -0.21875 -2.734375q-0.203125 -1.140625 -0.875 -1.828125q-0.65625 -0.6875 -1.90625 -0.6875q-1.265625 0 -1.9375 0.6875q-0.65625 0.6875 -0.875 1.828125q-0.21875 1.125 -0.21875 2.734375q0 1.6875 0.21875 2.828125q0.21875 1.140625 0.875 1.828125q0.671875 0.6875 1.9375 0.6875q1.25 0 1.90625 -0.6875q0.671875 -0.6875 0.875 -1.828125q0.21875 -1.140625 0.21875 -2.828125zm3.5598755 -5.046875l0 -1.546875l3.515625 0l0 13.484375l-1.71875 0l0 -11.9375l-1.796875 0zm15.016907 -0.078125l-6.546875 0l0 4.25q0.4375 -0.59375 1.265625 -0.96875q0.84375 -0.390625 1.8125 -0.390625q1.546875 0 2.515625 0.65625q0.984375 0.640625 1.390625 1.65625q0.421875 1.015625 0.421875 2.140625q0 1.34375 -0.5 2.421875q-0.5 1.0625 -1.546875 1.671875q-1.03125 0.609375 -2.5625 0.609375q-1.953125 0 -3.171875 -1.0q-1.203125 -1.015625 -1.46875 -2.6875l1.65625 0q0.25 1.0625 1.03125 1.65625q0.78125 0.59375 1.984375 0.59375q1.46875 0 2.21875 -0.875q0.75 -0.890625 0.75 -2.34375q0 -1.453125 -0.75 -2.25q-0.75 -0.796875 -2.203125 -0.796875q-0.984375 0 -1.734375 0.484375q-0.734375 0.46875 -1.0625 1.296875l-1.609375 0l0 -7.609375l8.109375 0l0 1.484375z" fill-rule="nonzero"/><path fill="#f1c232" d="m744.4376 86.03412l144.72217 0l35.277832 40.787407l-35.277832 40.78739l-144.72217 0l35.277893 -40.78739z" fill-rule="evenodd"/><path stroke="#000000" stroke-width="1.0" stroke-linejoin="round" stroke-linecap="butt" d="m744.4376 86.03412l144.72217 0l35.277832 40.787407l-35.277832 40.78739l-144.72217 0l35.277893 -40.78739z" fill-rule="evenodd"/><path fill="#000000" d="m799.7957 99.8834l0 8.921875q0 1.5 -0.921875 2.390625q-0.921875 0.890625 -2.421875 0.890625q-1.53125 0 -2.453125 -0.90625q-0.921875 -0.921875 -0.921875 -2.5l1.578125 0q0.015625 0.890625 0.453125 1.453125q0.453125 0.546875 1.34375 0.546875q0.875 0 1.3125 -0.53125q0.4375 -0.53125 0.4375 -1.34375l0 -8.921875l1.59375 0zm11.512024 2.578125l0 9.5l-1.578125 0l0 -1.40625q-0.4375 0.734375 -1.25 1.140625q-0.8125 0.40625 -1.78125 0.40625q-1.109375 0 -2.0 -0.453125q-0.875 -0.46875 -1.390625 -1.375q-0.5 -0.921875 -0.5 -2.25l0 -5.5625l1.5625 0l0 5.359375q0 1.40625 0.703125 2.15625q0.71875 0.75 1.9375 0.75q1.265625 0 1.984375 -0.78125q0.734375 -0.78125 0.734375 -2.265625l0 -5.21875l1.578125 0zm7.29303 -0.171875q1.734375 0 2.8125 1.046875q1.078125 1.046875 1.078125 3.03125l0 5.59375l-1.5625 0l0 -5.375q0 -1.421875 -0.71875 -2.171875q-0.703125 -0.75 -1.9375 -0.75q-1.234375 0 -1.984375 0.78125q-0.734375 0.78125 -0.734375 2.265625l0 5.25l-1.578125 0l0 -9.5l1.578125 0l0 1.359375q0.46875 -0.734375 1.265625 -1.125q0.8125 -0.40625 1.78125 -0.40625zm15.136841 4.5625q0 0.453125 -0.046875 0.953125l-7.59375 0q0.078125 1.40625 0.953125 2.203125q0.875 0.78125 2.125 0.78125q1.03125 0 1.703125 -0.46875q0.6875 -0.484375 0.96875 -1.28125l1.703125 0q-0.390625 1.359375 -1.53125 2.21875q-1.140625 0.859375 -2.84375 0.859375q-1.34375 0 -2.421875 -0.609375q-1.0625 -0.609375 -1.671875 -1.71875q-0.59375 -1.125 -0.59375 -2.59375q0 -1.46875 0.578125 -2.578125q0.59375 -1.109375 1.65625 -1.703125q1.078125 -0.609375 2.453125 -0.609375q1.359375 0 2.390625 0.59375q1.046875 0.59375 1.609375 1.625q0.5625 1.03125 0.5625 2.328125zm-1.625 -0.328125q0 -0.90625 -0.40625 -1.546875q-0.390625 -0.65625 -1.078125 -0.984375q-0.6875 -0.34375 -1.515625 -0.34375q-1.203125 0 -2.046875 0.765625q-0.828125 0.75 -0.953125 2.109375l6.0 0zm7.885559 4.171875q2.1875 -1.765625 3.4375 -2.890625q1.25 -1.140625 2.109375 -2.375q0.859375 -1.25 0.859375 -2.4375q0 -1.140625 -0.546875 -1.78125q-0.546875 -0.65625 -1.765625 -0.65625q-1.171875 0 -1.828125 0.75q-0.640625 0.734375 -0.703125 1.953125l-1.515625 0q0.0625 -1.9375 1.171875 -2.984375q1.109375 -1.0625 2.859375 -1.0625q1.796875 0 2.84375 0.984375q1.046875 0.984375 1.046875 2.71875q0 1.4375 -0.859375 2.796875q-0.859375 1.359375 -1.953125 2.390625q-1.09375 1.03125 -2.796875 2.40625l5.96875 0l0 1.3125l-8.328125 0l0 -1.125zm10.151123 -5.125q0 -2.984375 0.96875 -4.65625q0.96875 -1.671875 3.390625 -1.671875q2.40625 0 3.375 1.671875q0.984375 1.671875 0.984375 4.65625q0 3.03125 -0.984375 4.71875q-0.96875 1.671875 -3.375 1.671875q-2.421875 0 -3.390625 -1.671875q-0.96875 -1.6875 -0.96875 -4.71875zm7.15625 0q0 -1.515625 -0.203125 -2.5625q-0.203125 -1.046875 -0.8125 -1.6875q-0.609375 -0.640625 -1.78125 -0.640625q-1.171875 0 -1.796875 0.640625q-0.609375 0.640625 -0.8125 1.6875q-0.1875 1.046875 -0.1875 2.5625q0 1.5625 0.1875 2.625q0.203125 1.046875 0.8125 1.6875q0.625 0.640625 1.796875 0.640625q1.171875 0 1.78125 -0.640625q0.609375 -0.640625 0.8125 -1.6875q0.203125 -1.0625 0.203125 -2.625zm3.303894 -4.703125l0 -1.4375l3.265625 0l0 12.53125l-1.59375 0l0 -11.09375l-1.671875 0zm12.951172 1.546875q-0.390625 -1.921875 -2.375 -1.921875q-1.546875 0 -2.3125 1.1875q-0.765625 1.1875 -0.734375 3.90625q0.390625 -0.90625 1.3125 -1.40625q0.9375 -0.515625 2.078125 -0.515625q1.78125 0 2.84375 1.109375q1.078125 1.109375 1.078125 3.0625q0 1.171875 -0.46875 2.109375q-0.453125 0.9375 -1.390625 1.5q-0.921875 0.546875 -2.234375 0.546875q-1.78125 0 -2.796875 -0.796875q-1.0 -0.796875 -1.40625 -2.1875q-0.390625 -1.40625 -0.390625 -3.46875q0 -6.359375 4.4375 -6.359375q1.703125 0 2.671875 0.921875q0.96875 0.90625 1.140625 2.3125l-1.453125 0zm-2.359375 2.578125q-0.75 0 -1.40625 0.3125q-0.65625 0.296875 -1.0625 0.921875q-0.40625 0.609375 -0.40625 1.484375q0 1.328125 0.75 2.15625q0.765625 0.8125 2.1875 0.8125q1.21875 0 1.9375 -0.75q0.71875 -0.765625 0.71875 -2.046875q0 -1.34375 -0.703125 -2.109375q-0.6875 -0.78125 -2.015625 -0.78125z" fill-rule="nonzero"/><path fill="#000000" d="m837.58563 125.94589l0 1.328125l-6.921875 0l0 -1.328125l6.921875 0z" fill-rule="nonzero"/><path fill="#000000" d="m799.75244 141.88339l0 8.921875q0 1.5 -0.921875 2.390625q-0.921875 0.890625 -2.421875 0.890625q-1.53125 0 -2.453125 -0.90625q-0.921875 -0.921875 -0.921875 -2.5l1.578125 0q0.015625 0.890625 0.453125 1.453125q0.453125 0.546875 1.34375 0.546875q0.875 0 1.3125 -0.53125q0.4375 -0.53125 0.4375 -1.34375l0 -8.921875l1.59375 0zm11.511963 2.578125l0 9.5l-1.578125 0l0 -1.40625q-0.4375 0.734375 -1.25 1.140625q-0.8125 0.40625 -1.78125 0.40625q-1.109375 0 -2.0 -0.453125q-0.875 -0.46875 -1.390625 -1.375q-0.5 -0.921875 -0.5 -2.25l0 -5.5625l1.5625 0l0 5.359375q0 1.40625 0.703125 2.15625q0.71875 0.75 1.9375 0.75q1.265625 0 1.984375 -0.78125q0.734375 -0.78125 0.734375 -2.265625l0 -5.21875l1.578125 0zm7.29303 -0.171875q1.734375 0 2.8125 1.046875q1.078125 1.046875 1.078125 3.03125l0 5.59375l-1.5625 0l0 -5.375q0 -1.421875 -0.71875 -2.171875q-0.703125 -0.75 -1.9375 -0.75q-1.234375 0 -1.984375 0.78125q-0.734375 0.78125 -0.734375 2.265625l0 5.25l-1.578125 0l0 -9.5l1.578125 0l0 1.359375q0.46875 -0.734375 1.265625 -1.125q0.8125 -0.40625 1.78125 -0.40625zm15.136841 4.5625q0 0.453125 -0.046875 0.953125l-7.59375 0q0.078125 1.40625 0.953125 2.203125q0.875 0.78125 2.125 0.78125q1.03125 0 1.703125 -0.46875q0.6875 -0.484375 0.96875 -1.28125l1.703125 0q-0.390625 1.359375 -1.53125 2.21875q-1.140625 0.859375 -2.84375 0.859375q-1.34375 0 -2.421875 -0.609375q-1.0625 -0.609375 -1.671875 -1.71875q-0.59375 -1.125 -0.59375 -2.59375q0 -1.46875 0.578125 -2.578125q0.59375 -1.109375 1.65625 -1.703125q1.078125 -0.609375 2.453125 -0.609375q1.359375 0 2.390625 0.59375q1.046875 0.59375 1.609375 1.625q0.5625 1.03125 0.5625 2.328125zm-1.625 -0.328125q0 -0.90625 -0.40625 -1.546875q-0.390625 -0.65625 -1.078125 -0.984375q-0.6875 -0.34375 -1.515625 -0.34375q-1.203125 0 -2.046875 0.765625q-0.828125 0.75 -0.953125 2.109375l6.0 0zm17.82306 5.4375l-1.578125 0l-6.34375 -9.609375l0 9.609375l-1.578125 0l0 -12.09375l1.578125 0l6.34375 9.59375l0 -9.59375l1.578125 0l0 12.09375zm6.8222656 0.15625q-1.328125 0 -2.421875 -0.609375q-1.078125 -0.609375 -1.6875 -1.71875q-0.609375 -1.125 -0.609375 -2.59375q0 -1.453125 0.625 -2.5625q0.640625 -1.125 1.71875 -1.71875q1.09375 -0.609375 2.453125 -0.609375q1.34375 0 2.4375 0.609375q1.09375 0.59375 1.71875 1.703125q0.640625 1.109375 0.640625 2.578125q0 1.46875 -0.65625 2.59375q-0.640625 1.109375 -1.75 1.71875q-1.109375 0.609375 -2.46875 0.609375zm0 -1.390625q0.859375 0 1.59375 -0.390625q0.75 -0.40625 1.203125 -1.203125q0.46875 -0.796875 0.46875 -1.9375q0 -1.140625 -0.453125 -1.9375q-0.453125 -0.796875 -1.1875 -1.1875q-0.71875 -0.390625 -1.5625 -0.390625q-0.875 0 -1.59375 0.390625q-0.71875 0.390625 -1.15625 1.1875q-0.421875 0.796875 -0.421875 1.9375q0 1.15625 0.421875 1.953125q0.421875 0.796875 1.125 1.1875q0.71875 0.390625 1.5625 0.390625zm19.60553 -8.265625l-2.96875 9.5l-1.625 0l-2.28125 -7.53125l-2.296875 7.53125l-1.625 0l-2.984375 -9.5l1.609375 0l2.1875 7.96875l2.359375 -7.96875l1.609375 0l2.3125 8.0l2.140625 -8.0l1.5625 0z" fill-rule="nonzero"/><path fill="#f1c232" d="m893.2305 86.03412l144.7221 0l35.277832 40.787407l-35.277832 40.78739l-144.7221 0l35.277832 -40.78739z" fill-rule="evenodd"/><path stroke="#000000" stroke-width="1.0" stroke-linejoin="round" stroke-linecap="butt" d="m893.2305 86.03412l144.7221 0l35.277832 40.787407l-35.277832 40.78739l-144.7221 0l35.277832 -40.78739z" fill-rule="evenodd"/><path fill="#000000" d="m970.3411 108.8509l-5.671875 0l-1.046875 2.890625l-1.796875 0l4.703125 -12.921875l1.96875 0l4.671875 12.921875l-1.78125 0l-1.046875 -2.890625zm-0.484375 -1.375l-2.359375 -6.578125l-2.34375 6.578125l4.703125 0zm9.527466 -4.5625l-2.140625 0l0 8.828125l-1.703125 0l0 -8.828125l-1.328125 0l0 -1.390625l1.328125 0l0 -0.734375q0 -1.71875 0.890625 -2.5q0.890625 -0.796875 2.84375 -0.796875l0 1.421875q-1.125 0 -1.578125 0.4375q-0.453125 0.4375 -0.453125 1.4375l0 0.734375l2.140625 0l0 1.390625zm4.0441284 0l0 6.03125q0 0.75 0.3125 1.0625q0.328125 0.296875 1.109375 0.296875l1.25 0l0 1.4375l-1.53125 0q-1.40625 0 -2.125 -0.65625q-0.703125 -0.65625 -0.703125 -2.140625l0 -6.03125l-1.328125 0l0 -1.390625l1.328125 0l0 -2.578125l1.6875 0l0 2.578125l2.671875 0l0 1.390625l-2.671875 0zm14.056519 3.328125q0 0.484375 -0.0625 1.015625l-8.171875 0q0.09375 1.515625 1.03125 2.375q0.953125 0.84375 2.296875 0.84375q1.09375 0 1.828125 -0.515625q0.75 -0.515625 1.046875 -1.375l1.828125 0q-0.40625 1.484375 -1.640625 2.40625q-1.234375 0.921875 -3.0625 0.921875q-1.453125 0 -2.609375 -0.65625q-1.140625 -0.65625 -1.796875 -1.859375q-0.65625 -1.203125 -0.65625 -2.78125q0 -1.59375 0.640625 -2.78125q0.640625 -1.203125 1.78125 -1.84375q1.140625 -0.640625 2.640625 -0.640625q1.453125 0 2.5625 0.640625q1.125 0.625 1.734375 1.734375q0.609375 1.109375 0.609375 2.515625zm-1.75 -0.359375q0 -0.96875 -0.4375 -1.671875q-0.421875 -0.703125 -1.171875 -1.0625q-0.734375 -0.359375 -1.625 -0.359375q-1.28125 0 -2.1875 0.828125q-0.90625 0.8125 -1.03125 2.265625l6.453125 0zm5.6918945 -2.703125q0.4375 -0.875 1.265625 -1.359375q0.84375 -0.484375 2.03125 -0.484375l0 1.75l-0.453125 0q-2.84375 0 -2.84375 3.09375l0 5.5625l-1.703125 0l0 -10.21875l1.703125 0l0 1.65625z" fill-rule="nonzero"/><path fill="#000000" d="m968.54755 120.741516l0 9.609375q0 1.59375 -1.0 2.5625q-0.984375 0.953125 -2.59375 0.953125q-1.640625 0 -2.640625 -0.96875q-0.984375 -0.984375 -0.984375 -2.6875l1.703125 0q0.015625 0.953125 0.484375 1.5625q0.484375 0.59375 1.4375 0.59375q0.9375 0 1.40625 -0.5625q0.46875 -0.578125 0.46875 -1.453125l0 -9.609375l1.71875 0zm12.403442 2.78125l0 10.21875l-1.6875 0l0 -1.515625q-0.484375 0.78125 -1.359375 1.234375q-0.875 0.4375 -1.90625 0.4375q-1.203125 0 -2.15625 -0.5q-0.953125 -0.5 -1.5 -1.484375q-0.546875 -0.984375 -0.546875 -2.40625l0 -5.984375l1.671875 0l0 5.765625q0 1.5 0.765625 2.3125q0.765625 0.8125 2.09375 0.8125q1.359375 0 2.140625 -0.828125q0.796875 -0.84375 0.796875 -2.453125l0 -5.609375l1.6875 0zm7.8618774 -0.1875q1.859375 0 3.015625 1.125q1.15625 1.125 1.15625 3.25l0 6.03125l-1.671875 0l0 -5.78125q0 -1.53125 -0.765625 -2.34375q-0.765625 -0.8125 -2.09375 -0.8125q-1.34375 0 -2.140625 0.84375q-0.78125 0.84375 -0.78125 2.4375l0 5.65625l-1.703125 0l0 -10.21875l1.703125 0l0 1.453125q0.5 -0.78125 1.359375 -1.203125q0.875 -0.4375 1.921875 -0.4375zm16.283752 4.90625q0 0.484375 -0.0625 1.015625l-8.171875 0q0.09375 1.515625 1.03125 2.375q0.953125 0.84375 2.296875 0.84375q1.09375 0 1.828125 -0.515625q0.75 -0.515625 1.046875 -1.375l1.828125 0q-0.40625 1.484375 -1.640625 2.40625q-1.234375 0.921875 -3.0625 0.921875q-1.453125 0 -2.609375 -0.65625q-1.140625 -0.65625 -1.796875 -1.859375q-0.65625 -1.203125 -0.65625 -2.78125q0 -1.59375 0.640625 -2.78125q0.640625 -1.203125 1.78125 -1.84375q1.140625 -0.640625 2.640625 -0.640625q1.453125 0 2.5625 0.640625q1.125 0.625 1.734375 1.734375q0.609375 1.109375 0.609375 2.515625zm-1.75 -0.359375q0 -0.96875 -0.4375 -1.671875q-0.421875 -0.703125 -1.171875 -1.0625q-0.734375 -0.359375 -1.625 -0.359375q-1.28125 0 -2.1875 0.828125q-0.90625 0.8125 -1.03125 2.265625l6.453125 0z" fill-rule="nonzero"/><path fill="#000000" d="m944.93335 159.21027q-1.78125 -1.75 -2.78125 -4.453125q-1.0 -2.703125 -1.0 -5.84375q0 -3.203125 1.046875 -5.984375q1.0625 -2.796875 3.015625 -4.609375l1.78125 0l0 0.171875q-2.09375 1.953125 -3.15625 4.703125q-1.046875 2.75 -1.046875 5.71875q0 2.890625 1.0 5.53125q1.0 2.625 2.921875 4.59375l0 0.171875l-1.78125 0zm8.235535 -3.34375q-1.296875 0 -2.3125 -0.453125q-1.015625 -0.453125 -1.59375 -1.265625q-0.578125 -0.8125 -0.59375 -1.875l1.8125 0q0.09375 0.90625 0.75 1.53125q0.671875 0.625 1.9375 0.625q1.203125 0 1.90625 -0.59375q0.703125 -0.609375 0.703125 -1.5625q0 -0.75 -0.421875 -1.21875q-0.40625 -0.46875 -1.015625 -0.703125q-0.609375 -0.25 -1.65625 -0.515625q-1.296875 -0.34375 -2.078125 -0.671875q-0.765625 -0.34375 -1.3125 -1.0625q-0.546875 -0.71875 -0.546875 -1.9375q0 -1.0625 0.53125 -1.875q0.546875 -0.828125 1.515625 -1.265625q0.984375 -0.453125 2.265625 -0.453125q1.828125 0 2.984375 0.921875q1.171875 0.90625 1.3125 2.421875l-1.859375 0q-0.09375 -0.75 -0.78125 -1.3125q-0.6875 -0.578125 -1.828125 -0.578125q-1.0625 0 -1.734375 0.5625q-0.671875 0.546875 -0.671875 1.53125q0 0.703125 0.390625 1.15625q0.40625 0.453125 0.984375 0.6875q0.59375 0.21875 1.65625 0.53125q1.296875 0.34375 2.078125 0.6875q0.78125 0.34375 1.34375 1.0625q0.5625 0.71875 0.5625 1.953125q0 0.953125 -0.515625 1.796875q-0.5 0.828125 -1.484375 1.359375q-0.984375 0.515625 -2.328125 0.515625zm8.888733 -8.953125l0 6.03125q0 0.75 0.3125 1.0625q0.328125 0.296875 1.109375 0.296875l1.25 0l0 1.4375l-1.53125 0q-1.40625 0 -2.125 -0.65625q-0.703125 -0.65625 -0.703125 -2.140625l0 -6.03125l-1.328125 0l0 -1.390625l1.328125 0l0 -2.578125l1.6875 0l0 2.578125l2.671875 0l0 1.390625l-2.671875 0zm4.0877686 3.671875q0 -1.5625 0.640625 -2.734375q0.640625 -1.1875 1.75 -1.84375q1.109375 -0.65625 2.46875 -0.65625q1.34375 0 2.328125 0.578125q0.984375 0.578125 1.46875 1.453125l0 -1.859375l1.71875 0l0 10.21875l-1.71875 0l0 -1.90625q-0.5 0.90625 -1.5 1.5q-1.0 0.578125 -2.3125 0.578125q-1.375 0 -2.46875 -0.671875q-1.09375 -0.671875 -1.734375 -1.875q-0.640625 -1.21875 -0.640625 -2.78125zm8.65625 0.03125q0 -1.15625 -0.46875 -2.015625q-0.453125 -0.859375 -1.25 -1.3125q-0.796875 -0.46875 -1.75 -0.46875q-0.953125 0 -1.734375 0.453125q-0.78125 0.453125 -1.25 1.3125q-0.46875 0.84375 -0.46875 2.0q0 1.1875 0.46875 2.0625q0.46875 0.859375 1.25 1.3125q0.78125 0.453125 1.734375 0.453125q0.953125 0 1.75 -0.453125q0.796875 -0.453125 1.25 -1.3125q0.46875 -0.875 0.46875 -2.03125zm8.814758 -5.265625q1.328125 0 2.3125 0.578125q1.0 0.578125 1.484375 1.453125l0 -1.859375l1.71875 0l0 10.4375q0 1.40625 -0.59375 2.5q-0.59375 1.09375 -1.703125 1.703125q-1.109375 0.609375 -2.59375 0.609375q-2.015625 0 -3.359375 -0.953125q-1.34375 -0.9375 -1.578125 -2.578125l1.671875 0q0.28125 0.921875 1.15625 1.484375q0.890625 0.578125 2.109375 0.578125q1.40625 0 2.28125 -0.875q0.890625 -0.875 0.890625 -2.46875l0 -2.140625q-0.5 0.890625 -1.484375 1.5q-0.984375 0.59375 -2.3125 0.59375q-1.359375 0 -2.46875 -0.671875q-1.109375 -0.671875 -1.75 -1.875q-0.640625 -1.21875 -0.640625 -2.78125q0 -1.5625 0.640625 -2.734375q0.640625 -1.1875 1.75 -1.84375q1.109375 -0.65625 2.46875 -0.65625zm3.796875 5.265625q0 -1.15625 -0.46875 -2.015625q-0.453125 -0.859375 -1.25 -1.3125q-0.796875 -0.46875 -1.75 -0.46875q-0.953125 0 -1.734375 0.453125q-0.78125 0.453125 -1.25 1.3125q-0.46875 0.84375 -0.46875 2.0q0 1.1875 0.46875 2.0625q0.46875 0.859375 1.25 1.3125q0.78125 0.453125 1.734375 0.453125q0.953125 0 1.75 -0.453125q0.796875 -0.453125 1.25 -1.3125q0.46875 -0.875 0.46875 -2.03125zm13.924133 -0.375q0 0.484375 -0.0625 1.015625l-8.171875 0q0.09375 1.515625 1.03125 2.375q0.953125 0.84375 2.296875 0.84375q1.09375 0 1.828125 -0.515625q0.75 -0.515625 1.046875 -1.375l1.828125 0q-0.40625 1.484375 -1.640625 2.40625q-1.234375 0.921875 -3.0625 0.921875q-1.453125 0 -2.609375 -0.65625q-1.140625 -0.65625 -1.796875 -1.859375q-0.65625 -1.203125 -0.65625 -2.78125q0 -1.59375 0.640625 -2.78125q0.640625 -1.203125 1.78125 -1.84375q1.140625 -0.640625 2.640625 -0.640625q1.453125 0 2.5625 0.640625q1.125 0.625 1.734375 1.734375q0.609375 1.109375 0.609375 2.515625zm-1.75 -0.359375q0 -0.96875 -0.4375 -1.671875q-0.421875 -0.703125 -1.171875 -1.0625q-0.734375 -0.359375 -1.625 -0.359375q-1.28125 0 -2.1875 0.828125q-0.90625 0.8125 -1.03125 2.265625l6.453125 0zm8.282471 2.859375l0 -1.296875l6.546875 -9.0625l2.03125 0l0 8.875l1.859375 0l0 1.484375l-1.859375 0l0 3.0l-1.671875 0l0 -3.0l-6.90625 0zm6.96875 -8.578125l-5.015625 7.09375l5.015625 0l0 -7.09375zm4.9066772 15.046875l0 -0.171875q1.921875 -1.96875 2.921875 -4.59375q1.0 -2.640625 1.0 -5.53125q0 -2.96875 -1.0625 -5.71875q-1.046875 -2.75 -3.140625 -4.703125l0 -0.171875l1.78125 0q1.953125 1.8125 2.999939 4.609375q1.0625 2.78125 1.0625 5.984375q0 3.140625 -1.0 5.84375q-0.99993896 2.703125 -2.781189 4.453125l-1.78125 0z" fill-rule="nonzero"/><path fill="#f1c232" d="m2.9017847 86.03412l144.1495 0l35.850494 40.787407l-35.850494 40.78739l-144.1495 0z" fill-rule="evenodd"/><path stroke="#000000" stroke-width="1.0" stroke-linejoin="round" stroke-linecap="butt" d="m2.9017847 86.03412l144.1495 0l35.850494 40.787407l-35.850494 40.78739l-144.1495 0z" fill-rule="evenodd"/><path fill="#000000" d="m64.8107 121.804016l0 -1.546875l3.515625 0l0 13.484375l-1.71875 0l0 -11.9375l-1.796875 0zm8.610626 8.3125q0.1875 1.0625 0.859375 1.640625q0.6875 0.578125 1.84375 0.578125q1.546875 0 2.28125 -1.203125q0.734375 -1.21875 0.703125 -4.09375q-0.390625 0.84375 -1.3125 1.328125q-0.90625 0.46875 -2.03125 0.46875q-1.25 0 -2.234375 -0.515625q-0.96875 -0.515625 -1.53125 -1.5q-0.5625 -0.984375 -0.5625 -2.390625q0 -2.0 1.15625 -3.21875q1.15625 -1.21875 3.28125 -1.21875q2.609375 0 3.65625 1.703125q1.0625 1.6875 1.0625 5.046875q0 2.359375 -0.421875 3.890625q-0.40625 1.53125 -1.40625 2.328125q-1.0 0.796875 -2.734375 0.796875q-1.90625 0 -2.96875 -1.015625q-1.0625 -1.03125 -1.21875 -2.625l1.578125 0zm2.625 -2.71875q1.25 0 2.046875 -0.765625q0.8125 -0.78125 0.8125 -2.109375q0 -1.390625 -0.796875 -2.25q-0.78125 -0.859375 -2.1875 -0.859375q-1.3125 0 -2.09375 0.828125q-0.765625 0.8125 -0.765625 2.15625q0 1.359375 0.765625 2.1875q0.765625 0.8125 2.21875 0.8125zm9.128433 2.71875q0.1875 1.0625 0.859375 1.640625q0.6875 0.578125 1.84375 0.578125q1.546875 0 2.28125 -1.203125q0.734375 -1.21875 0.703125 -4.09375q-0.390625 0.84375 -1.3125 1.328125q-0.90625 0.46875 -2.03125 0.46875q-1.25 0 -2.234375 -0.515625q-0.96875 -0.515625 -1.53125 -1.5q-0.5625 -0.984375 -0.5625 -2.390625q0 -2.0 1.15625 -3.21875q1.15625 -1.21875 3.28125 -1.21875q2.609375 0 3.65625 1.703125q1.0625 1.6875 1.0625 5.046875q0 2.359375 -0.421875 3.890625q-0.40625 1.53125 -1.40625 2.328125q-1.0 0.796875 -2.734375 0.796875q-1.90625 0 -2.96875 -1.015625q-1.0625 -1.03125 -1.21875 -2.625l1.578125 0zm2.625 -2.71875q1.25 0 2.046875 -0.765625q0.8125 -0.78125 0.8125 -2.109375q0 -1.390625 -0.796875 -2.25q-0.78125 -0.859375 -2.1875 -0.859375q-1.3125 0 -2.09375 0.828125q-0.765625 0.8125 -0.765625 2.15625q0 1.359375 0.765625 2.1875q0.765625 0.8125 2.21875 0.8125zm15.237808 -5.8125l-5.1875 12.15625l-1.703125 0l5.25 -12.0l-7.203125 0l0 -1.453125l8.84375 0l0 1.296875z" fill-rule="nonzero"/><path fill="#000000" fill-opacity="0.0" d="m0 2.5065618l149.29134 0l0 42.015747l-149.29134 0z" fill-rule="evenodd"/><path fill="#000000" d="m12.140625 17.80156l0 4.34375l4.734375 0l0 1.40625l-4.734375 0l0 4.46875l5.296875 0l0 1.40625l-7.0 0l0 -13.015625l7.0 0l0 1.390625l-5.296875 0zm7.2269135 5.109375q0 -1.890625 0.859375 -3.40625q0.859375 -1.53125 2.34375 -2.390625q1.484375 -0.859375 3.296875 -0.859375q2.125 0 3.703125 1.03125q1.59375 1.015625 2.328125 2.90625l-2.046875 0q-0.53125 -1.171875 -1.546875 -1.796875q-1.015625 -0.640625 -2.4375 -0.640625q-1.359375 0 -2.453125 0.640625q-1.078125 0.625 -1.703125 1.796875q-0.609375 1.15625 -0.609375 2.71875q0 1.546875 0.609375 2.71875q0.625 1.171875 1.703125 1.8125q1.09375 0.625 2.453125 0.625q1.421875 0 2.4375 -0.625q1.015625 -0.625 1.546875 -1.796875l2.046875 0q-0.734375 1.859375 -2.328125 2.875q-1.578125 1.015625 -3.703125 1.015625q-1.8125 0 -3.296875 -0.84375q-1.484375 -0.84375 -2.34375 -2.359375q-0.859375 -1.515625 -0.859375 -3.421875zm28.230759 -6.390625l0 12.90625l-1.703125 0l0 -9.625l-4.28125 9.625l-1.203125 0l-4.296875 -9.640625l0 9.640625l-1.703125 0l0 -12.90625l1.828125 0l4.78125 10.671875l4.765625 -10.671875l1.8125 0zm10.563034 10.015625l-5.671875 0l-1.046875 2.890625l-1.796875 0l4.703125 -12.921875l1.96875 0l4.671875 12.921875l-1.78125 0l-1.046875 -2.890625zm-0.484375 -1.375l-2.359375 -6.578125l-2.34375 6.578125l4.703125 0zm9.496185 4.390625q-1.296875 0 -2.3125 -0.453125q-1.015625 -0.453125 -1.59375 -1.265625q-0.578125 -0.8125 -0.59375 -1.875l1.8125 0q0.09375 0.90625 0.75 1.53125q0.671875 0.625 1.9375 0.625q1.203125 0 1.90625 -0.59375q0.703125 -0.609375 0.703125 -1.5625q0 -0.75 -0.421875 -1.21875q-0.40625 -0.46875 -1.015625 -0.703125q-0.609375 -0.25 -1.65625 -0.515625q-1.296875 -0.34375 -2.078125 -0.671875q-0.765625 -0.34375 -1.3125 -1.0625q-0.546875 -0.71875 -0.546875 -1.9375q0 -1.0625 0.53125 -1.875q0.546875 -0.828125 1.515625 -1.265625q0.984375 -0.453125 2.265625 -0.453125q1.828125 0 2.984375 0.921875q1.171875 0.90625 1.3125 2.421875l-1.859375 0q-0.09375 -0.75 -0.78125 -1.3125q-0.6875 -0.578125 -1.828125 -0.578125q-1.0625 0 -1.734375 0.5625q-0.671875 0.546875 -0.671875 1.53125q0 0.703125 0.390625 1.15625q0.40625 0.453125 0.984375 0.6875q0.59375 0.21875 1.65625 0.53125q1.296875 0.34375 2.078125 0.6875q0.78125 0.34375 1.34375 1.0625q0.5625 0.71875 0.5625 1.953125q0 0.953125 -0.515625 1.796875q-0.5 0.828125 -1.484375 1.359375q-0.984375 0.515625 -2.328125 0.515625zm6.1855927 -5.25q0 -1.59375 0.640625 -2.765625q0.640625 -1.1875 1.765625 -1.84375q1.125 -0.65625 2.578125 -0.65625q1.890625 0 3.109375 0.921875q1.21875 0.90625 1.609375 2.53125l-1.828125 0q-0.265625 -0.9375 -1.015625 -1.46875q-0.75 -0.546875 -1.875 -0.546875q-1.453125 0 -2.359375 1.0q-0.890625 1.0 -0.890625 2.828125q0 1.84375 0.890625 2.859375q0.90625 1.0 2.359375 1.0q1.125 0 1.859375 -0.515625q0.75 -0.53125 1.03125 -1.5l1.828125 0q-0.40625 1.5625 -1.640625 2.515625q-1.234375 0.9375 -3.078125 0.9375q-1.453125 0 -2.578125 -0.65625q-1.125 -0.65625 -1.765625 -1.84375q-0.640625 -1.203125 -0.640625 -2.796875zm13.668091 -3.4375q0.4375 -0.875 1.265625 -1.359375q0.84375 -0.484375 2.03125 -0.484375l0 1.75l-0.453125 0q-2.84375 0 -2.84375 3.09375l0 5.5625l-1.703125 0l0 -10.21875l1.703125 0l0 1.65625zm6.130661 -3.328125q-0.484375 0 -0.828125 -0.328125q-0.328125 -0.34375 -0.328125 -0.828125q0 -0.484375 0.328125 -0.8125q0.34375 -0.34375 0.828125 -0.34375q0.46875 0 0.796875 0.34375q0.328125 0.328125 0.328125 0.8125q0 0.484375 -0.328125 0.828125q-0.328125 0.328125 -0.796875 0.328125zm0.828125 1.671875l0 10.21875l-1.703125 0l0 -10.21875l1.703125 0zm4.589432 1.875q0.5 -0.875 1.5 -1.453125q1.0 -0.59375 2.3125 -0.59375q1.375 0 2.484375 0.65625q1.109375 0.65625 1.734375 1.84375q0.640625 1.171875 0.640625 2.734375q0 1.5625 -0.640625 2.78125q-0.625 1.203125 -1.734375 1.875q-1.109375 0.671875 -2.484375 0.671875q-1.296875 0 -2.296875 -0.578125q-1.0 -0.59375 -1.515625 -1.484375l0 6.734375l-1.703125 0l0 -15.0625l1.703125 0l0 1.875zm6.9375 3.1875q0 -1.15625 -0.46875 -2.0q-0.46875 -0.859375 -1.265625 -1.3125q-0.78125 -0.453125 -1.734375 -0.453125q-0.9375 0 -1.734375 0.46875q-0.796875 0.453125 -1.265625 1.328125q-0.46875 0.859375 -0.46875 2.0q0 1.15625 0.46875 2.03125q0.46875 0.859375 1.265625 1.3125q0.796875 0.453125 1.734375 0.453125q0.953125 0 1.734375 -0.453125q0.796875 -0.453125 1.265625 -1.3125q0.46875 -0.875 0.46875 -2.0625zm6.0335083 -3.671875l0 6.03125q0 0.75 0.3125 1.0625q0.328125 0.296875 1.109375 0.296875l1.25 0l0 1.4375l-1.53125 0q-1.40625 0 -2.125 -0.65625q-0.703125 -0.65625 -0.703125 -2.140625l0 -6.03125l-1.328125 0l0 -1.390625l1.328125 0l0 -2.578125l1.6875 0l0 2.578125l2.671875 0l0 1.390625l-2.671875 0zm8.97522 -3.109375l0 -1.546875l3.515625 0l0 13.484375l-1.71875 0l0 -11.9375l-1.796875 0z" fill-rule="nonzero"/><path fill="#000000" fill-opacity="0.0" d="m74.97654 86.03412l-0.34645844 -41.51181" fill-rule="evenodd"/><path stroke="#000000" stroke-width="3.0" stroke-linejoin="round" stroke-linecap="butt" d="m74.97654 86.03412l-0.25157166 -30.142208" fill-rule="evenodd"/><path fill="#000000" stroke="#000000" stroke-width="3.0" stroke-linecap="butt" d="m74.6426 46.02226c2.7254257 -0.02274704 4.9532623 2.168209 4.976013 4.8936424c0.022743225 2.7254295 -2.168213 4.953266 -4.8936462 4.976013c-2.7254257 0.02274704 -4.9532623 -2.168213 -4.976013 -4.8936424c-0.022743225 -2.7254295 2.168213 -4.95327 4.8936462 -4.976013z" fill-rule="nonzero"/><path fill="#000000" fill-opacity="0.0" d="m147.72966 222.1916l149.29134 0l0 42.01573l-149.29134 0z" fill-rule="evenodd"/><path fill="#000000" d="m159.87029 237.4866l0 4.34375l4.734375 0l0 1.40625l-4.734375 0l0 4.46875l5.296875 0l0 1.40625l-7.0 0l0 -13.015625l7.0 0l0 1.390625l-5.296875 0zm7.2269135 5.109375q0 -1.890625 0.859375 -3.40625q0.859375 -1.53125 2.34375 -2.390625q1.484375 -0.859375 3.296875 -0.859375q2.125 0 3.703125 1.03125q1.59375 1.015625 2.328125 2.90625l-2.046875 0q-0.53125 -1.171875 -1.546875 -1.796875q-1.015625 -0.640625 -2.4375 -0.640625q-1.359375 0 -2.453125 0.640625q-1.078125 0.625 -1.703125 1.796875q-0.609375 1.15625 -0.609375 2.71875q0 1.546875 0.609375 2.71875q0.625 1.171875 1.703125 1.8125q1.09375 0.625 2.453125 0.625q1.421875 0 2.4375 -0.625q1.015625 -0.625 1.546875 -1.796875l2.046875 0q-0.734375 1.859375 -2.328125 2.875q-1.578125 1.015625 -3.703125 1.015625q-1.8125 0 -3.296875 -0.84375q-1.484375 -0.84375 -2.34375 -2.359375q-0.859375 -1.515625 -0.859375 -3.421875zm28.230759 -6.390625l0 12.90625l-1.703125 0l0 -9.625l-4.28125 9.625l-1.203125 0l-4.296875 -9.640625l0 9.640625l-1.703125 0l0 -12.90625l1.828125 0l4.78125 10.671875l4.765625 -10.671875l1.8125 0zm10.563034 10.015625l-5.671875 0l-1.046875 2.890625l-1.796875 0l4.703125 -12.921875l1.96875 0l4.671875 12.921875l-1.78125 0l-1.046875 -2.890625zm-0.484375 -1.375l-2.359375 -6.578125l-2.34375 6.578125l4.703125 0zm9.496185 4.390625q-1.296875 0 -2.3125 -0.453125q-1.015625 -0.453125 -1.59375 -1.265625q-0.578125 -0.8125 -0.59375 -1.875l1.8125 0q0.09375 0.90625 0.75 1.53125q0.671875 0.625 1.9375 0.625q1.203125 0 1.90625 -0.59375q0.703125 -0.609375 0.703125 -1.5625q0 -0.75 -0.421875 -1.21875q-0.40625 -0.46875 -1.015625 -0.703125q-0.609375 -0.25 -1.65625 -0.515625q-1.296875 -0.34375 -2.078125 -0.671875q-0.765625 -0.34375 -1.3125 -1.0625q-0.546875 -0.71875 -0.546875 -1.9375q0 -1.0625 0.53125 -1.875q0.546875 -0.828125 1.515625 -1.265625q0.984375 -0.453125 2.265625 -0.453125q1.828125 0 2.984375 0.921875q1.171875 0.90625 1.3125 2.421875l-1.859375 0q-0.09375 -0.75 -0.78125 -1.3125q-0.6875 -0.578125 -1.828125 -0.578125q-1.0625 0 -1.734375 0.5625q-0.671875 0.546875 -0.671875 1.53125q0 0.703125 0.390625 1.15625q0.40625 0.453125 0.984375 0.6875q0.59375 0.21875 1.65625 0.53125q1.296875 0.34375 2.078125 0.6875q0.78125 0.34375 1.34375 1.0625q0.5625 0.71875 0.5625 1.953125q0 0.953125 -0.515625 1.796875q-0.5 0.828125 -1.484375 1.359375q-0.984375 0.515625 -2.328125 0.515625zm6.1855927 -5.25q0 -1.59375 0.640625 -2.765625q0.640625 -1.1875 1.765625 -1.84375q1.125 -0.65625 2.578125 -0.65625q1.890625 0 3.109375 0.921875q1.21875 0.90625 1.609375 2.53125l-1.828125 0q-0.265625 -0.9375 -1.015625 -1.46875q-0.75 -0.546875 -1.875 -0.546875q-1.453125 0 -2.359375 1.0q-0.890625 1.0 -0.890625 2.828125q0 1.84375 0.890625 2.859375q0.90625 1.0 2.359375 1.0q1.125 0 1.859375 -0.515625q0.75 -0.53125 1.03125 -1.5l1.828125 0q-0.40625 1.5625 -1.640625 2.515625q-1.234375 0.9375 -3.078125 0.9375q-1.453125 0 -2.578125 -0.65625q-1.125 -0.65625 -1.765625 -1.84375q-0.640625 -1.203125 -0.640625 -2.796875zm13.668091 -3.4375q0.4375 -0.875 1.265625 -1.359375q0.84375 -0.484375 2.03125 -0.484375l0 1.75l-0.453125 0q-2.84375 0 -2.84375 3.09375l0 5.5625l-1.703125 0l0 -10.21875l1.703125 0l0 1.65625zm6.130661 -3.328125q-0.484375 0 -0.828125 -0.328125q-0.328125 -0.34375 -0.328125 -0.828125q0 -0.484375 0.328125 -0.8125q0.34375 -0.34375 0.828125 -0.34375q0.46875 0 0.796875 0.34375q0.328125 0.328125 0.328125 0.8125q0 0.484375 -0.328125 0.828125q-0.328125 0.328125 -0.796875 0.328125zm0.828125 1.671875l0 10.21875l-1.703125 0l0 -10.21875l1.703125 0zm4.589432 1.875q0.5 -0.875 1.5 -1.453125q1.0 -0.59375 2.3125 -0.59375q1.375 0 2.484375 0.65625q1.109375 0.65625 1.734375 1.84375q0.640625 1.171875 0.640625 2.734375q0 1.5625 -0.640625 2.78125q-0.625 1.203125 -1.734375 1.875q-1.109375 0.671875 -2.484375 0.671875q-1.296875 0 -2.296875 -0.578125q-1.0 -0.59375 -1.515625 -1.484375l0 6.734375l-1.703125 0l0 -15.0625l1.703125 0l0 1.875zm6.9375 3.1875q0 -1.15625 -0.46875 -2.0q-0.46875 -0.859375 -1.265625 -1.3125q-0.78125 -0.453125 -1.734375 -0.453125q-0.9375 0 -1.734375 0.46875q-0.796875 0.453125 -1.265625 1.328125q-0.46875 0.859375 -0.46875 2.0q0 1.15625 0.46875 2.03125q0.46875 0.859375 1.265625 1.3125q0.796875 0.453125 1.734375 0.453125q0.953125 0 1.734375 -0.453125q0.796875 -0.453125 1.265625 -1.3125q0.46875 -0.875 0.46875 -2.0625zm6.033493 -3.671875l0 6.03125q0 0.75 0.3125 1.0625q0.328125 0.296875 1.109375 0.296875l1.25 0l0 1.4375l-1.53125 0q-1.40625 0 -2.125 -0.65625q-0.703125 -0.65625 -0.703125 -2.140625l0 -6.03125l-1.328125 0l0 -1.390625l1.328125 0l0 -2.578125l1.6875 0l0 2.578125l2.671875 0l0 1.390625l-2.671875 0zm9.22522 7.46875q2.375 -1.90625 3.703125 -3.125q1.34375 -1.21875 2.265625 -2.546875q0.9375 -1.34375 0.9375 -2.625q0 -1.21875 -0.59375 -1.921875q-0.59375 -0.703125 -1.890625 -0.703125q-1.265625 0 -1.96875 0.796875q-0.703125 0.796875 -0.75 2.125l-1.65625 0q0.078125 -2.09375 1.265625 -3.234375q1.203125 -1.140625 3.09375 -1.140625q1.921875 0 3.046875 1.0625q1.125 1.0625 1.125 2.9375q0 1.546875 -0.921875 3.015625q-0.921875 1.453125 -2.109375 2.5625q-1.171875 1.109375 -3.0 2.59375l6.421875 0l0 1.40625l-8.96875 0l0 -1.203125z" fill-rule="nonzero"/><path fill="#000000" fill-opacity="0.0" d="m223.17735 167.60892l-0.7873993 54.582687" fill-rule="evenodd"/><path stroke="#000000" stroke-width="3.0" stroke-linejoin="round" stroke-linecap="butt" d="m223.17735 167.60892l-0.6233978 43.213882" fill-rule="evenodd"/><path fill="#000000" stroke="#000000" stroke-width="3.0" stroke-linecap="butt" d="m222.41159 220.69176c-2.7252502 -0.03930664 -4.9026184 -2.280426 -4.863312 -5.0056763c0.0393219 -2.725235 2.280426 -4.902603 5.0056763 -4.8632965c2.725235 0.03930664 4.9026184 2.280426 4.8632965 5.0056763c-0.03930664 2.725235 -2.280426 4.902603 -5.005661 4.8632965z" fill-rule="nonzero"/><path fill="#000000" fill-opacity="0.0" d="m297.021 2.5065618l149.29135 0l0 42.015747l-149.29135 0z" fill-rule="evenodd"/><path fill="#000000" d="m309.16162 17.80156l0 4.34375l4.734375 0l0 1.40625l-4.734375 0l0 4.46875l5.296875 0l0 1.40625l-7.0 0l0 -13.015625l7.0 0l0 1.390625l-5.296875 0zm7.2269287 5.109375q0 -1.890625 0.859375 -3.40625q0.859375 -1.53125 2.34375 -2.390625q1.484375 -0.859375 3.296875 -0.859375q2.125 0 3.703125 1.03125q1.59375 1.015625 2.328125 2.90625l-2.046875 0q-0.53125 -1.171875 -1.546875 -1.796875q-1.015625 -0.640625 -2.4375 -0.640625q-1.359375 0 -2.453125 0.640625q-1.078125 0.625 -1.703125 1.796875q-0.609375 1.15625 -0.609375 2.71875q0 1.546875 0.609375 2.71875q0.625 1.171875 1.703125 1.8125q1.09375 0.625 2.453125 0.625q1.421875 0 2.4375 -0.625q1.015625 -0.625 1.546875 -1.796875l2.046875 0q-0.734375 1.859375 -2.328125 2.875q-1.578125 1.015625 -3.703125 1.015625q-1.8125 0 -3.296875 -0.84375q-1.484375 -0.84375 -2.34375 -2.359375q-0.859375 -1.515625 -0.859375 -3.421875zm28.230743 -6.390625l0 12.90625l-1.703125 0l0 -9.625l-4.28125 9.625l-1.203125 0l-4.296875 -9.640625l0 9.640625l-1.703125 0l0 -12.90625l1.828125 0l4.78125 10.671875l4.765625 -10.671875l1.8125 0zm10.563049 10.015625l-5.671875 0l-1.046875 2.890625l-1.796875 0l4.703125 -12.921875l1.96875 0l4.671875 12.921875l-1.78125 0l-1.046875 -2.890625zm-0.484375 -1.375l-2.359375 -6.578125l-2.34375 6.578125l4.703125 0zm9.496185 4.390625q-1.296875 0 -2.3125 -0.453125q-1.015625 -0.453125 -1.59375 -1.265625q-0.578125 -0.8125 -0.59375 -1.875l1.8125 0q0.09375 0.90625 0.75 1.53125q0.671875 0.625 1.9375 0.625q1.203125 0 1.90625 -0.59375q0.703125 -0.609375 0.703125 -1.5625q0 -0.75 -0.421875 -1.21875q-0.40625 -0.46875 -1.015625 -0.703125q-0.609375 -0.25 -1.65625 -0.515625q-1.296875 -0.34375 -2.078125 -0.671875q-0.765625 -0.34375 -1.3125 -1.0625q-0.546875 -0.71875 -0.546875 -1.9375q0 -1.0625 0.53125 -1.875q0.546875 -0.828125 1.515625 -1.265625q0.984375 -0.453125 2.265625 -0.453125q1.828125 0 2.984375 0.921875q1.171875 0.90625 1.3125 2.421875l-1.859375 0q-0.09375 -0.75 -0.78125 -1.3125q-0.6875 -0.578125 -1.828125 -0.578125q-1.0625 0 -1.734375 0.5625q-0.671875 0.546875 -0.671875 1.53125q0 0.703125 0.390625 1.15625q0.40625 0.453125 0.984375 0.6875q0.59375 0.21875 1.65625 0.53125q1.296875 0.34375 2.078125 0.6875q0.78125 0.34375 1.34375 1.0625q0.5625 0.71875 0.5625 1.953125q0 0.953125 -0.515625 1.796875q-0.5 0.828125 -1.484375 1.359375q-0.984375 0.515625 -2.328125 0.515625zm6.1855774 -5.25q0 -1.59375 0.640625 -2.765625q0.640625 -1.1875 1.765625 -1.84375q1.125 -0.65625 2.578125 -0.65625q1.890625 0 3.109375 0.921875q1.21875 0.90625 1.609375 2.53125l-1.828125 0q-0.265625 -0.9375 -1.015625 -1.46875q-0.75 -0.546875 -1.875 -0.546875q-1.453125 0 -2.359375 1.0q-0.890625 1.0 -0.890625 2.828125q0 1.84375 0.890625 2.859375q0.90625 1.0 2.359375 1.0q1.125 0 1.859375 -0.515625q0.75 -0.53125 1.03125 -1.5l1.828125 0q-0.40625 1.5625 -1.640625 2.515625q-1.234375 0.9375 -3.078125 0.9375q-1.453125 0 -2.578125 -0.65625q-1.125 -0.65625 -1.765625 -1.84375q-0.640625 -1.203125 -0.640625 -2.796875zm13.668091 -3.4375q0.4375 -0.875 1.265625 -1.359375q0.84375 -0.484375 2.03125 -0.484375l0 1.75l-0.453125 0q-2.84375 0 -2.84375 3.09375l0 5.5625l-1.703125 0l0 -10.21875l1.703125 0l0 1.65625zm6.1306763 -3.328125q-0.484375 0 -0.828125 -0.328125q-0.328125 -0.34375 -0.328125 -0.828125q0 -0.484375 0.328125 -0.8125q0.34375 -0.34375 0.828125 -0.34375q0.46875 0 0.796875 0.34375q0.328125 0.328125 0.328125 0.8125q0 0.484375 -0.328125 0.828125q-0.328125 0.328125 -0.796875 0.328125zm0.828125 1.671875l0 10.21875l-1.703125 0l0 -10.21875l1.703125 0zm4.5894165 1.875q0.5 -0.875 1.5 -1.453125q1.0 -0.59375 2.3125 -0.59375q1.375 0 2.484375 0.65625q1.109375 0.65625 1.734375 1.84375q0.640625 1.171875 0.640625 2.734375q0 1.5625 -0.640625 2.78125q-0.625 1.203125 -1.734375 1.875q-1.109375 0.671875 -2.484375 0.671875q-1.296875 0 -2.296875 -0.578125q-1.0 -0.59375 -1.515625 -1.484375l0 6.734375l-1.703125 0l0 -15.0625l1.703125 0l0 1.875zm6.9375 3.1875q0 -1.15625 -0.46875 -2.0q-0.46875 -0.859375 -1.265625 -1.3125q-0.78125 -0.453125 -1.734375 -0.453125q-0.9375 0 -1.734375 0.46875q-0.796875 0.453125 -1.265625 1.328125q-0.46875 0.859375 -0.46875 2.0q0 1.15625 0.46875 2.03125q0.46875 0.859375 1.265625 1.3125q0.796875 0.453125 1.734375 0.453125q0.953125 0 1.734375 -0.453125q0.796875 -0.453125 1.265625 -1.3125q0.46875 -0.875 0.46875 -2.0625zm6.0335083 -3.671875l0 6.03125q0 0.75 0.3125 1.0625q0.328125 0.296875 1.109375 0.296875l1.25 0l0 1.4375l-1.53125 0q-1.40625 0 -2.125 -0.65625q-0.703125 -0.65625 -0.703125 -2.140625l0 -6.03125l-1.328125 0l0 -1.390625l1.328125 0l0 -2.578125l1.6875 0l0 2.578125l2.671875 0l0 1.390625l-2.671875 0zm9.397095 -1.265625q0.125 -1.71875 1.3125 -2.6875q1.203125 -0.96875 3.109375 -0.96875q1.265625 0 2.1875 0.46875q0.921875 0.453125 1.390625 1.234375q0.484375 0.78125 0.484375 1.765625q0 1.15625 -0.671875 2.0q-0.65625 0.84375 -1.71875 1.078125l0 0.09375q1.21875 0.296875 1.921875 1.171875q0.703125 0.875 0.703125 2.296875q0 1.0625 -0.484375 1.921875q-0.484375 0.84375 -1.453125 1.328125q-0.96875 0.484375 -2.328125 0.484375q-1.984375 0 -3.25 -1.03125q-1.265625 -1.046875 -1.40625 -2.9375l1.640625 0q0.125 1.109375 0.90625 1.828125q0.78125 0.703125 2.09375 0.703125q1.296875 0 1.984375 -0.671875q0.6875 -0.6875 0.6875 -1.765625q0 -1.40625 -0.9375 -2.015625q-0.9375 -0.625 -2.8125 -0.625l-0.4375 0l0 -1.40625l0.453125 0q1.71875 -0.03125 2.59375 -0.578125q0.875 -0.546875 0.875 -1.703125q0 -0.984375 -0.65625 -1.578125q-0.640625 -0.609375 -1.828125 -0.609375q-1.15625 0 -1.875 0.609375q-0.703125 0.59375 -0.828125 1.59375l-1.65625 0z" fill-rule="nonzero"/><path fill="#000000" fill-opacity="0.0" d="m371.18625 86.03412l0.47244263 -41.51181" fill-rule="evenodd"/><path stroke="#000000" stroke-width="3.0" stroke-linejoin="round" stroke-linecap="butt" d="m371.18628 86.03412l0.3430481 -30.142544" fill-rule="evenodd"/><path fill="#000000" stroke="#000000" stroke-width="3.0" stroke-linecap="butt" d="m371.64163 46.022213c2.7253418 0.031017303 4.909546 2.2654915 4.87854 4.990841c-0.031036377 2.7253494 -2.265503 4.9095345 -4.9908447 4.878521c-2.7253723 -0.031017303 -4.909546 -2.2654953 -4.87854 -4.9908447c0.031036377 -2.7253456 2.265503 -4.9095345 4.9908447 -4.878517z" fill-rule="nonzero"/><path fill="#000000" fill-opacity="0.0" d="m444.15222 0l149.29132 0l0 42.015747l-149.29132 0z" fill-rule="evenodd"/><path fill="#000000" d="m456.29285 15.294998l0 4.34375l4.734375 0l0 1.40625l-4.734375 0l0 4.46875l5.296875 0l0 1.40625l-7.0 0l0 -13.015625l7.0 0l0 1.390625l-5.296875 0zm7.2269287 5.109375q0 -1.890625 0.859375 -3.40625q0.859375 -1.53125 2.34375 -2.390625q1.484375 -0.859375 3.296875 -0.859375q2.125 0 3.703125 1.03125q1.59375 1.015625 2.328125 2.90625l-2.046875 0q-0.53125 -1.171875 -1.546875 -1.796875q-1.015625 -0.640625 -2.4375 -0.640625q-1.359375 0 -2.453125 0.640625q-1.078125 0.625 -1.703125 1.796875q-0.609375 1.15625 -0.609375 2.71875q0 1.546875 0.609375 2.71875q0.625 1.171875 1.703125 1.8125q1.09375 0.625 2.453125 0.625q1.421875 0 2.4375 -0.625q1.015625 -0.625 1.546875 -1.796875l2.046875 0q-0.734375 1.859375 -2.328125 2.875q-1.578125 1.015625 -3.703125 1.015625q-1.8125 0 -3.296875 -0.84375q-1.484375 -0.84375 -2.34375 -2.359375q-0.859375 -1.515625 -0.859375 -3.421875zm28.230743 -6.390625l0 12.90625l-1.703125 0l0 -9.625l-4.28125 9.625l-1.203125 0l-4.296875 -9.640625l0 9.640625l-1.703125 0l0 -12.90625l1.828125 0l4.78125 10.671875l4.765625 -10.671875l1.8125 0zm10.563049 10.015625l-5.671875 0l-1.046875 2.890625l-1.796875 0l4.703125 -12.921875l1.96875 0l4.671875 12.921875l-1.78125 0l-1.046875 -2.890625zm-0.484375 -1.375l-2.359375 -6.578125l-2.34375 6.578125l4.703125 0zm9.496185 4.390625q-1.296875 0 -2.3125 -0.453125q-1.015625 -0.453125 -1.59375 -1.265625q-0.578125 -0.8125 -0.59375 -1.875l1.8125 0q0.09375 0.90625 0.75 1.53125q0.671875 0.625 1.9375 0.625q1.203125 0 1.90625 -0.59375q0.703125 -0.609375 0.703125 -1.5625q0 -0.75 -0.421875 -1.21875q-0.40625 -0.46875 -1.015625 -0.703125q-0.609375 -0.25 -1.65625 -0.515625q-1.296875 -0.34375 -2.078125 -0.671875q-0.765625 -0.34375 -1.3125 -1.0625q-0.546875 -0.71875 -0.546875 -1.9375q0 -1.0625 0.53125 -1.875q0.546875 -0.828125 1.515625 -1.265625q0.984375 -0.453125 2.265625 -0.453125q1.828125 0 2.984375 0.921875q1.171875 0.90625 1.3125 2.421875l-1.859375 0q-0.09375 -0.75 -0.78125 -1.3125q-0.6875 -0.578125 -1.828125 -0.578125q-1.0625 0 -1.734375 0.5625q-0.671875 0.546875 -0.671875 1.53125q0 0.703125 0.390625 1.15625q0.40625 0.453125 0.984375 0.6875q0.59375 0.21875 1.65625 0.53125q1.296875 0.34375 2.078125 0.6875q0.78125 0.34375 1.34375 1.0625q0.5625 0.71875 0.5625 1.953125q0 0.953125 -0.515625 1.796875q-0.5 0.828125 -1.484375 1.359375q-0.984375 0.515625 -2.328125 0.515625zm6.185608 -5.25q0 -1.59375 0.640625 -2.765625q0.640625 -1.1875 1.765625 -1.84375q1.125 -0.65625 2.578125 -0.65625q1.890625 0 3.109375 0.921875q1.21875 0.90625 1.609375 2.53125l-1.828125 0q-0.265625 -0.9375 -1.015625 -1.46875q-0.75 -0.546875 -1.875 -0.546875q-1.453125 0 -2.359375 1.0q-0.890625 1.0 -0.890625 2.828125q0 1.84375 0.890625 2.859375q0.90625 1.0 2.359375 1.0q1.125 0 1.859375 -0.515625q0.75 -0.53125 1.03125 -1.5l1.828125 0q-0.40625 1.5625 -1.640625 2.515625q-1.234375 0.9375 -3.078125 0.9375q-1.453125 0 -2.578125 -0.65625q-1.125 -0.65625 -1.765625 -1.84375q-0.640625 -1.203125 -0.640625 -2.796875zm13.668091 -3.4375q0.4375 -0.875 1.265625 -1.359375q0.84375 -0.484375 2.03125 -0.484375l0 1.75l-0.453125 0q-2.84375 0 -2.84375 3.09375l0 5.5625l-1.703125 0l0 -10.21875l1.703125 0l0 1.65625zm6.130615 -3.328125q-0.484375 0 -0.828125 -0.328125q-0.328125 -0.34375 -0.328125 -0.828125q0 -0.484375 0.328125 -0.8125q0.34375 -0.34375 0.828125 -0.34375q0.46875 0 0.796875 0.34375q0.328125 0.328125 0.328125 0.8125q0 0.484375 -0.328125 0.828125q-0.328125 0.328125 -0.796875 0.328125zm0.828125 1.671875l0 10.21875l-1.703125 0l0 -10.21875l1.703125 0zm4.5894775 1.875q0.5 -0.875 1.5 -1.453125q1.0 -0.59375 2.3125 -0.59375q1.375 0 2.484375 0.65625q1.109375 0.65625 1.734375 1.84375q0.640625 1.171875 0.640625 2.734375q0 1.5625 -0.640625 2.78125q-0.625 1.203125 -1.734375 1.875q-1.109375 0.671875 -2.484375 0.671875q-1.296875 0 -2.296875 -0.578125q-1.0 -0.59375 -1.515625 -1.484375l0 6.734375l-1.703125 0l0 -15.0625l1.703125 0l0 1.875zm6.9375 3.1875q0 -1.15625 -0.46875 -2.0q-0.46875 -0.859375 -1.265625 -1.3125q-0.78125 -0.453125 -1.734375 -0.453125q-0.9375 0 -1.734375 0.46875q-0.796875 0.453125 -1.265625 1.328125q-0.46875 0.859375 -0.46875 2.0q0 1.15625 0.46875 2.03125q0.46875 0.859375 1.265625 1.3125q0.796875 0.453125 1.734375 0.453125q0.953125 0 1.734375 -0.453125q0.796875 -0.453125 1.265625 -1.3125q0.46875 -0.875 0.46875 -2.0625zm6.0335083 -3.671875l0 6.03125q0 0.75 0.3125 1.0625q0.328125 0.296875 1.109375 0.296875l1.25 0l0 1.4375l-1.53125 0q-1.40625 0 -2.125 -0.65625q-0.703125 -0.65625 -0.703125 -2.140625l0 -6.03125l-1.328125 0l0 -1.390625l1.328125 0l0 -2.578125l1.6875 0l0 2.578125l2.671875 0l0 1.390625l-2.671875 0zm18.022095 -3.1875l-6.546875 0l0 4.25q0.4375 -0.59375 1.265625 -0.96875q0.84375 -0.390625 1.8125 -0.390625q1.546875 0 2.515625 0.65625q0.984375 0.640625 1.390625 1.65625q0.421875 1.015625 0.421875 2.140625q0 1.34375 -0.5 2.421875q-0.5 1.0625 -1.546875 1.671875q-1.03125 0.609375 -2.5625 0.609375q-1.953125 0 -3.171875 -1.0q-1.203125 -1.015625 -1.46875 -2.6875l1.65625 0q0.25 1.0625 1.03125 1.65625q0.78125 0.59375 1.984375 0.59375q1.46875 0 2.21875 -0.875q0.75 -0.890625 0.75 -2.34375q0 -1.453125 -0.75 -2.25q-0.75 -0.796875 -2.203125 -0.796875q-0.984375 0 -1.734375 0.484375q-0.734375 0.46875 -1.0625 1.296875l-1.609375 0l0 -7.609375l8.109375 0l0 1.484375z" fill-rule="nonzero"/><path fill="#000000" fill-opacity="0.0" d="m519.9791 86.03412l-1.1968384 -44.031494" fill-rule="evenodd"/><path stroke="#000000" stroke-width="3.0" stroke-linejoin="round" stroke-linecap="butt" d="m519.9791 86.03412l-0.88793945 -32.66569" fill-rule="evenodd"/><path fill="#000000" stroke="#000000" stroke-width="3.0" stroke-linecap="butt" d="m518.82306 43.50207c2.7244873 -0.07405853 4.993164 2.074566 5.0672607 4.7990837c0.074035645 2.7245216 -2.074585 4.9932137 -4.7991333 5.067272c-2.7244873 0.07405472 -4.993164 -2.0745697 -5.0672607 -4.7990875c-0.074035645 -2.7245178 2.074585 -4.9932137 4.7991333 -5.0672684z" fill-rule="nonzero"/><path fill="#000000" fill-opacity="0.0" d="m375.84778 222.1916l149.29132 0l0 56.56694l-149.29132 0z" fill-rule="evenodd"/><path fill="#000000" d="m387.9884 237.4866l0 4.34375l4.734375 0l0 1.40625l-4.734375 0l0 4.46875l5.296875 0l0 1.40625l-7.0 0l0 -13.015625l7.0 0l0 1.390625l-5.296875 0zm7.226898 5.109375q0 -1.890625 0.859375 -3.40625q0.859375 -1.53125 2.34375 -2.390625q1.484375 -0.859375 3.296875 -0.859375q2.125 0 3.703125 1.03125q1.59375 1.015625 2.328125 2.90625l-2.046875 0q-0.53125 -1.171875 -1.546875 -1.796875q-1.015625 -0.640625 -2.4375 -0.640625q-1.359375 0 -2.453125 0.640625q-1.078125 0.625 -1.703125 1.796875q-0.609375 1.15625 -0.609375 2.71875q0 1.546875 0.609375 2.71875q0.625 1.171875 1.703125 1.8125q1.09375 0.625 2.453125 0.625q1.421875 0 2.4375 -0.625q1.015625 -0.625 1.546875 -1.796875l2.046875 0q-0.734375 1.859375 -2.328125 2.875q-1.578125 1.015625 -3.703125 1.015625q-1.8125 0 -3.296875 -0.84375q-1.484375 -0.84375 -2.34375 -2.359375q-0.859375 -1.515625 -0.859375 -3.421875zm28.230774 -6.390625l0 12.90625l-1.703125 0l0 -9.625l-4.28125 9.625l-1.203125 0l-4.296875 -9.640625l0 9.640625l-1.703125 0l0 -12.90625l1.828125 0l4.78125 10.671875l4.765625 -10.671875l1.8125 0zm10.563019 10.015625l-5.671875 0l-1.046875 2.890625l-1.796875 0l4.703125 -12.921875l1.96875 0l4.671875 12.921875l-1.78125 0l-1.046875 -2.890625zm-0.484375 -1.375l-2.359375 -6.578125l-2.34375 6.578125l4.703125 0zm9.496185 4.390625q-1.296875 0 -2.3125 -0.453125q-1.015625 -0.453125 -1.59375 -1.265625q-0.578125 -0.8125 -0.59375 -1.875l1.8125 0q0.09375 0.90625 0.75 1.53125q0.671875 0.625 1.9375 0.625q1.203125 0 1.90625 -0.59375q0.703125 -0.609375 0.703125 -1.5625q0 -0.75 -0.421875 -1.21875q-0.40625 -0.46875 -1.015625 -0.703125q-0.609375 -0.25 -1.65625 -0.515625q-1.296875 -0.34375 -2.078125 -0.671875q-0.765625 -0.34375 -1.3125 -1.0625q-0.546875 -0.71875 -0.546875 -1.9375q0 -1.0625 0.53125 -1.875q0.546875 -0.828125 1.515625 -1.265625q0.984375 -0.453125 2.265625 -0.453125q1.828125 0 2.984375 0.921875q1.171875 0.90625 1.3125 2.421875l-1.859375 0q-0.09375 -0.75 -0.78125 -1.3125q-0.6875 -0.578125 -1.828125 -0.578125q-1.0625 0 -1.734375 0.5625q-0.671875 0.546875 -0.671875 1.53125q0 0.703125 0.390625 1.15625q0.40625 0.453125 0.984375 0.6875q0.59375 0.21875 1.65625 0.53125q1.296875 0.34375 2.078125 0.6875q0.78125 0.34375 1.34375 1.0625q0.5625 0.71875 0.5625 1.953125q0 0.953125 -0.515625 1.796875q-0.5 0.828125 -1.484375 1.359375q-0.984375 0.515625 -2.328125 0.515625zm6.185608 -5.25q0 -1.59375 0.640625 -2.765625q0.640625 -1.1875 1.765625 -1.84375q1.125 -0.65625 2.578125 -0.65625q1.890625 0 3.109375 0.921875q1.21875 0.90625 1.609375 2.53125l-1.828125 0q-0.265625 -0.9375 -1.015625 -1.46875q-0.75 -0.546875 -1.875 -0.546875q-1.453125 0 -2.359375 1.0q-0.890625 1.0 -0.890625 2.828125q0 1.84375 0.890625 2.859375q0.90625 1.0 2.359375 1.0q1.125 0 1.859375 -0.515625q0.75 -0.53125 1.03125 -1.5l1.828125 0q-0.40625 1.5625 -1.640625 2.515625q-1.234375 0.9375 -3.078125 0.9375q-1.453125 0 -2.578125 -0.65625q-1.125 -0.65625 -1.765625 -1.84375q-0.640625 -1.203125 -0.640625 -2.796875zm13.668091 -3.4375q0.4375 -0.875 1.265625 -1.359375q0.84375 -0.484375 2.03125 -0.484375l0 1.75l-0.453125 0q-2.84375 0 -2.84375 3.09375l0 5.5625l-1.703125 0l0 -10.21875l1.703125 0l0 1.65625zm6.1306458 -3.328125q-0.484375 0 -0.828125 -0.328125q-0.328125 -0.34375 -0.328125 -0.828125q0 -0.484375 0.328125 -0.8125q0.34375 -0.34375 0.828125 -0.34375q0.46875 0 0.796875 0.34375q0.328125 0.328125 0.328125 0.8125q0 0.484375 -0.328125 0.828125q-0.328125 0.328125 -0.796875 0.328125zm0.828125 1.671875l0 10.21875l-1.703125 0l0 -10.21875l1.703125 0zm4.589447 1.875q0.5 -0.875 1.5 -1.453125q1.0 -0.59375 2.3125 -0.59375q1.375 0 2.484375 0.65625q1.109375 0.65625 1.734375 1.84375q0.640625 1.171875 0.640625 2.734375q0 1.5625 -0.640625 2.78125q-0.625 1.203125 -1.734375 1.875q-1.109375 0.671875 -2.484375 0.671875q-1.296875 0 -2.296875 -0.578125q-1.0 -0.59375 -1.515625 -1.484375l0 6.734375l-1.703125 0l0 -15.0625l1.703125 0l0 1.875zm6.9375 3.1875q0 -1.15625 -0.46875 -2.0q-0.46875 -0.859375 -1.265625 -1.3125q-0.78125 -0.453125 -1.734375 -0.453125q-0.9375 0 -1.734375 0.46875q-0.796875 0.453125 -1.265625 1.328125q-0.46875 0.859375 -0.46875 2.0q0 1.15625 0.46875 2.03125q0.46875 0.859375 1.265625 1.3125q0.796875 0.453125 1.734375 0.453125q0.953125 0 1.734375 -0.453125q0.796875 -0.453125 1.265625 -1.3125q0.46875 -0.875 0.46875 -2.0625zm6.0335083 -3.671875l0 6.03125q0 0.75 0.3125 1.0625q0.328125 0.296875 1.109375 0.296875l1.25 0l0 1.4375l-1.53125 0q-1.40625 0 -2.125 -0.65625q-0.703125 -0.65625 -0.703125 -2.140625l0 -6.03125l-1.328125 0l0 -1.390625l1.328125 0l0 -2.578125l1.6875 0l0 2.578125l2.671875 0l0 1.390625l-2.671875 0zm9.022095 5.828125l0 -1.296875l6.546875 -9.0625l2.03125 0l0 8.875l1.859375 0l0 1.484375l-1.859375 0l0 3.0l-1.671875 0l0 -3.0l-6.90625 0zm6.96875 -8.578125l-5.015625 7.09375l5.015625 0l0 -7.09375z" fill-rule="nonzero"/><path fill="#000000" d="m392.34778 265.1116l-1.09375 0l-4.390625 -6.65625l0 6.65625l-1.09375 0l0 -8.375l1.09375 0l4.390625 6.640625l0 -6.640625l1.09375 0l0 8.375zm7.8579407 -3.546875q0 0.3125 -0.03125 0.671875l-5.265625 0q0.0625 0.96875 0.671875 1.515625q0.609375 0.546875 1.46875 0.546875q0.703125 0 1.171875 -0.328125q0.484375 -0.328125 0.671875 -0.890625l1.1875 0q-0.265625 0.953125 -1.0625 1.546875q-0.796875 0.59375 -1.96875 0.59375q-0.9375 0 -1.671875 -0.421875q-0.734375 -0.421875 -1.15625 -1.1875q-0.421875 -0.78125 -0.421875 -1.796875q0 -1.015625 0.40625 -1.78125q0.40625 -0.78125 1.140625 -1.1875q0.75 -0.421875 1.703125 -0.421875q0.9375 0 1.65625 0.40625q0.71875 0.40625 1.109375 1.125q0.390625 0.71875 0.390625 1.609375zm-1.125 -0.21875q0 -0.625 -0.28125 -1.078125q-0.265625 -0.453125 -0.75 -0.6875q-0.46875 -0.234375 -1.046875 -0.234375q-0.828125 0 -1.40625 0.53125q-0.578125 0.53125 -0.671875 1.46875l4.15625 0zm5.018158 2.75l2.03125 -5.5625l1.171875 0l-2.578125 6.578125l-1.28125 0l-2.578125 -6.578125l1.171875 0l2.0625 5.5625zm10.278931 -2.53125q0 0.3125 -0.03125 0.671875l-5.265625 0q0.0625 0.96875 0.671875 1.515625q0.609375 0.546875 1.46875 0.546875q0.703125 0 1.171875 -0.328125q0.484375 -0.328125 0.671875 -0.890625l1.1875 0q-0.265625 0.953125 -1.0625 1.546875q-0.796875 0.59375 -1.96875 0.59375q-0.9375 0 -1.671875 -0.421875q-0.734375 -0.421875 -1.15625 -1.1875q-0.421875 -0.78125 -0.421875 -1.796875q0 -1.015625 0.40625 -1.78125q0.40625 -0.78125 1.140625 -1.1875q0.75 -0.421875 1.703125 -0.421875q0.9375 0 1.65625 0.40625q0.71875 0.40625 1.109375 1.125q0.390625 0.71875 0.390625 1.609375zm-1.125 -0.21875q0 -0.625 -0.28125 -1.078125q-0.265625 -0.453125 -0.75 -0.6875q-0.46875 -0.234375 -1.046875 -0.234375q-0.828125 0 -1.40625 0.53125q-0.578125 0.53125 -0.671875 1.46875l4.15625 0zm3.658783 -1.75q0.28125 -0.5625 0.8125 -0.875q0.546875 -0.3125 1.3125 -0.3125l0 1.140625l-0.28125 0q-1.84375 0 -1.84375 1.984375l0 3.578125l-1.09375 0l0 -6.578125l1.09375 0l0 1.0625zm7.6800537 0q0.28125 -0.5625 0.8125 -0.875q0.546875 -0.3125 1.3125 -0.3125l0 1.140625l-0.28125 0q-1.84375 0 -1.84375 1.984375l0 3.578125l-1.09375 0l0 -6.578125l1.09375 0l0 1.0625zm9.382294 1.96875q0 0.3125 -0.03125 0.671875l-5.265625 0q0.0625 0.96875 0.671875 1.515625q0.609375 0.546875 1.46875 0.546875q0.703125 0 1.171875 -0.328125q0.484375 -0.328125 0.671875 -0.890625l1.1875 0q-0.265625 0.953125 -1.0625 1.546875q-0.796875 0.59375 -1.96875 0.59375q-0.9375 0 -1.671875 -0.421875q-0.734375 -0.421875 -1.15625 -1.1875q-0.421875 -0.78125 -0.421875 -1.796875q0 -1.015625 0.40625 -1.78125q0.40625 -0.78125 1.140625 -1.1875q0.75 -0.421875 1.703125 -0.421875q0.9375 0 1.65625 0.40625q0.71875 0.40625 1.109375 1.125q0.390625 0.71875 0.390625 1.609375zm-1.125 -0.21875q0 -0.625 -0.28125 -1.078125q-0.265625 -0.453125 -0.75 -0.6875q-0.46875 -0.234375 -1.046875 -0.234375q-0.828125 0 -1.40625 0.53125q-0.578125 0.53125 -0.671875 1.46875l4.15625 0zm3.658783 -5.109375l0 8.875l-1.09375 0l0 -8.875l1.09375 0zm7.8582764 5.328125q0 0.3125 -0.03125 0.671875l-5.265625 0q0.0625 0.96875 0.671875 1.515625q0.609375 0.546875 1.46875 0.546875q0.703125 0 1.171875 -0.328125q0.484375 -0.328125 0.671875 -0.890625l1.1875 0q-0.265625 0.953125 -1.0625 1.546875q-0.796875 0.59375 -1.96875 0.59375q-0.9375 0 -1.671875 -0.421875q-0.734375 -0.421875 -1.15625 -1.1875q-0.421875 -0.78125 -0.421875 -1.796875q0 -1.015625 0.40625 -1.78125q0.40625 -0.78125 1.140625 -1.1875q0.75 -0.421875 1.703125 -0.421875q0.9375 0 1.65625 0.40625q0.71875 0.40625 1.109375 1.125q0.390625 0.71875 0.390625 1.609375zm-1.125 -0.21875q0 -0.625 -0.28125 -1.078125q-0.265625 -0.453125 -0.75 -0.6875q-0.46875 -0.234375 -1.046875 -0.234375q-0.828125 0 -1.40625 0.53125q-0.578125 0.53125 -0.671875 1.46875l4.15625 0zm2.1588135 0.453125q0 -1.0 0.40625 -1.765625q0.40625 -0.765625 1.125 -1.1875q0.71875 -0.421875 1.59375 -0.421875q0.859375 0 1.484375 0.375q0.640625 0.375 0.953125 0.9375l0 -1.203125l1.109375 0l0 6.578125l-1.109375 0l0 -1.21875q-0.3125 0.578125 -0.96875 0.953125q-0.640625 0.375 -1.484375 0.375q-0.875 0 -1.59375 -0.421875q-0.703125 -0.4375 -1.109375 -1.21875q-0.40625 -0.78125 -0.40625 -1.78125zm5.5625 0.015625q0 -0.75 -0.296875 -1.296875q-0.296875 -0.546875 -0.8125 -0.84375q-0.5 -0.296875 -1.109375 -0.296875q-0.625 0 -1.125 0.296875q-0.5 0.28125 -0.8125 0.828125q-0.296875 0.546875 -0.296875 1.296875q0 0.75 0.296875 1.3125q0.3125 0.5625 0.8125 0.859375q0.5 0.28125 1.125 0.28125q0.609375 0 1.109375 -0.28125q0.515625 -0.296875 0.8125 -0.859375q0.296875 -0.5625 0.296875 -1.296875zm5.2839355 3.40625q-0.75 0 -1.359375 -0.25q-0.59375 -0.265625 -0.953125 -0.71875q-0.34375 -0.46875 -0.375 -1.078125l1.125 0q0.046875 0.5 0.453125 0.8125q0.421875 0.3125 1.09375 0.3125q0.625 0 0.984375 -0.28125q0.359375 -0.28125 0.359375 -0.6875q0 -0.4375 -0.390625 -0.640625q-0.375 -0.21875 -1.171875 -0.421875q-0.734375 -0.1875 -1.203125 -0.390625q-0.453125 -0.203125 -0.78125 -0.59375q-0.328125 -0.390625 -0.328125 -1.015625q0 -0.515625 0.296875 -0.921875q0.296875 -0.421875 0.84375 -0.671875q0.5625 -0.25 1.265625 -0.25q1.09375 0 1.765625 0.5625q0.671875 0.546875 0.71875 1.5l-1.09375 0q-0.03125 -0.515625 -0.421875 -0.828125q-0.375 -0.3125 -1.0 -0.3125q-0.59375 0 -0.953125 0.265625q-0.34375 0.25 -0.34375 0.65625q0 0.3125 0.203125 0.53125q0.21875 0.203125 0.53125 0.328125q0.328125 0.125 0.890625 0.28125q0.703125 0.203125 1.140625 0.390625q0.453125 0.1875 0.765625 0.5625q0.328125 0.359375 0.34375 0.96875q0 0.53125 -0.3125 0.96875q-0.296875 0.421875 -0.84375 0.671875q-0.546875 0.25 -1.25 0.25zm9.935913 -3.65625q0 0.3125 -0.03125 0.671875l-5.265625 0q0.0625 0.96875 0.671875 1.515625q0.609375 0.546875 1.46875 0.546875q0.703125 0 1.171875 -0.328125q0.484375 -0.328125 0.671875 -0.890625l1.1875 0q-0.265625 0.953125 -1.0625 1.546875q-0.796875 0.59375 -1.96875 0.59375q-0.9375 0 -1.671875 -0.421875q-0.734375 -0.421875 -1.15625 -1.1875q-0.421875 -0.78125 -0.421875 -1.796875q0 -1.015625 0.40625 -1.78125q0.40625 -0.78125 1.140625 -1.1875q0.75 -0.421875 1.703125 -0.421875q0.9375 0 1.65625 0.40625q0.71875 0.40625 1.109375 1.125q0.390625 0.71875 0.390625 1.609375zm-1.125 -0.21875q0 -0.625 -0.28125 -1.078125q-0.265625 -0.453125 -0.75 -0.6875q-0.46875 -0.234375 -1.046875 -0.234375q-0.828125 0 -1.40625 0.53125q-0.578125 0.53125 -0.671875 1.46875l4.15625 0zm2.158783 0.453125q0 -1.0 0.40625 -1.765625q0.40625 -0.765625 1.125 -1.1875q0.71875 -0.421875 1.59375 -0.421875q0.78125 0 1.4375 0.359375q0.65625 0.359375 1.0 0.921875l0 -3.46875l1.109375 0l0 8.875l-1.109375 0l0 -1.234375q-0.3125 0.59375 -0.953125 0.96875q-0.640625 0.375 -1.484375 0.375q-0.875 0 -1.59375 -0.421875q-0.71875 -0.4375 -1.125 -1.21875q-0.40625 -0.78125 -0.40625 -1.78125zm5.5625 0.015625q0 -0.75 -0.296875 -1.296875q-0.296875 -0.546875 -0.8125 -0.84375q-0.5 -0.296875 -1.109375 -0.296875q-0.625 0 -1.125 0.296875q-0.5 0.28125 -0.8125 0.828125q-0.296875 0.546875 -0.296875 1.296875q0 0.75 0.296875 1.3125q0.3125 0.5625 0.8125 0.859375q0.5 0.28125 1.125 0.28125q0.609375 0 1.109375 -0.28125q0.515625 -0.296875 0.8125 -0.859375q0.296875 -0.5625 0.296875 -1.296875z" fill-rule="nonzero"/><path fill="#000000" fill-opacity="0.0" d="m450.8714 166.79002l-0.3779602 55.40158" fill-rule="evenodd"/><path stroke="#000000" stroke-width="3.0" stroke-linejoin="round" stroke-linecap="butt" d="m450.8714 166.79002l-0.30041504 44.031845" fill-rule="evenodd"/><path fill="#000000" stroke="#000000" stroke-width="3.0" stroke-linecap="butt" d="m450.50366 220.69164c-2.7254639 -0.018585205 -4.9198 -2.2430878 -4.9012146 -4.9685516c0.018585205 -2.7254639 2.243103 -4.919815 4.968567 -4.9012146c2.7254639 0.018585205 4.9198 2.2430878 4.9012146 4.9685516c-0.018585205 2.7254639 -2.243103 4.919815 -4.968567 4.9012146z" fill-rule="nonzero"/><path fill="#000000" fill-opacity="0.0" d="m594.4908 222.1916l149.29138 0l0 42.01573l-149.29138 0z" fill-rule="evenodd"/><path fill="#000000" d="m606.6314 237.4866l0 4.34375l4.734375 0l0 1.40625l-4.734375 0l0 4.46875l5.296875 0l0 1.40625l-7.0 0l0 -13.015625l7.0 0l0 1.390625l-5.296875 0zm7.2269287 5.109375q0 -1.890625 0.859375 -3.40625q0.859375 -1.53125 2.34375 -2.390625q1.484375 -0.859375 3.296875 -0.859375q2.125 0 3.703125 1.03125q1.59375 1.015625 2.328125 2.90625l-2.046875 0q-0.53125 -1.171875 -1.546875 -1.796875q-1.015625 -0.640625 -2.4375 -0.640625q-1.359375 0 -2.453125 0.640625q-1.078125 0.625 -1.703125 1.796875q-0.609375 1.15625 -0.609375 2.71875q0 1.546875 0.609375 2.71875q0.625 1.171875 1.703125 1.8125q1.09375 0.625 2.453125 0.625q1.421875 0 2.4375 -0.625q1.015625 -0.625 1.546875 -1.796875l2.046875 0q-0.734375 1.859375 -2.328125 2.875q-1.578125 1.015625 -3.703125 1.015625q-1.8125 0 -3.296875 -0.84375q-1.484375 -0.84375 -2.34375 -2.359375q-0.859375 -1.515625 -0.859375 -3.421875zm28.230774 -6.390625l0 12.90625l-1.703125 0l0 -9.625l-4.28125 9.625l-1.203125 0l-4.296875 -9.640625l0 9.640625l-1.703125 0l0 -12.90625l1.828125 0l4.78125 10.671875l4.765625 -10.671875l1.8125 0zm10.563049 10.015625l-5.671875 0l-1.046875 2.890625l-1.796875 0l4.703125 -12.921875l1.96875 0l4.671875 12.921875l-1.78125 0l-1.046875 -2.890625zm-0.484375 -1.375l-2.359375 -6.578125l-2.34375 6.578125l4.703125 0zm9.496155 4.390625q-1.296875 0 -2.3125 -0.453125q-1.015625 -0.453125 -1.59375 -1.265625q-0.578125 -0.8125 -0.59375 -1.875l1.8125 0q0.09375 0.90625 0.75 1.53125q0.671875 0.625 1.9375 0.625q1.203125 0 1.90625 -0.59375q0.703125 -0.609375 0.703125 -1.5625q0 -0.75 -0.421875 -1.21875q-0.40625 -0.46875 -1.015625 -0.703125q-0.609375 -0.25 -1.65625 -0.515625q-1.296875 -0.34375 -2.078125 -0.671875q-0.765625 -0.34375 -1.3125 -1.0625q-0.546875 -0.71875 -0.546875 -1.9375q0 -1.0625 0.53125 -1.875q0.546875 -0.828125 1.515625 -1.265625q0.984375 -0.453125 2.265625 -0.453125q1.828125 0 2.984375 0.921875q1.171875 0.90625 1.3125 2.421875l-1.859375 0q-0.09375 -0.75 -0.78125 -1.3125q-0.6875 -0.578125 -1.828125 -0.578125q-1.0625 0 -1.734375 0.5625q-0.671875 0.546875 -0.671875 1.53125q0 0.703125 0.390625 1.15625q0.40625 0.453125 0.984375 0.6875q0.59375 0.21875 1.65625 0.53125q1.296875 0.34375 2.078125 0.6875q0.78125 0.34375 1.34375 1.0625q0.5625 0.71875 0.5625 1.953125q0 0.953125 -0.515625 1.796875q-0.5 0.828125 -1.484375 1.359375q-0.984375 0.515625 -2.328125 0.515625zm6.185608 -5.25q0 -1.59375 0.640625 -2.765625q0.640625 -1.1875 1.765625 -1.84375q1.125 -0.65625 2.578125 -0.65625q1.890625 0 3.109375 0.921875q1.21875 0.90625 1.609375 2.53125l-1.828125 0q-0.265625 -0.9375 -1.015625 -1.46875q-0.75 -0.546875 -1.875 -0.546875q-1.453125 0 -2.359375 1.0q-0.890625 1.0 -0.890625 2.828125q0 1.84375 0.890625 2.859375q0.90625 1.0 2.359375 1.0q1.125 0 1.859375 -0.515625q0.75 -0.53125 1.03125 -1.5l1.828125 0q-0.40625 1.5625 -1.640625 2.515625q-1.234375 0.9375 -3.078125 0.9375q-1.453125 0 -2.578125 -0.65625q-1.125 -0.65625 -1.765625 -1.84375q-0.640625 -1.203125 -0.640625 -2.796875zm13.668091 -3.4375q0.4375 -0.875 1.265625 -1.359375q0.84375 -0.484375 2.03125 -0.484375l0 1.75l-0.453125 0q-2.84375 0 -2.84375 3.09375l0 5.5625l-1.703125 0l0 -10.21875l1.703125 0l0 1.65625zm6.1306763 -3.328125q-0.484375 0 -0.828125 -0.328125q-0.328125 -0.34375 -0.328125 -0.828125q0 -0.484375 0.328125 -0.8125q0.34375 -0.34375 0.828125 -0.34375q0.46875 0 0.796875 0.34375q0.328125 0.328125 0.328125 0.8125q0 0.484375 -0.328125 0.828125q-0.328125 0.328125 -0.796875 0.328125zm0.828125 1.671875l0 10.21875l-1.703125 0l0 -10.21875l1.703125 0zm4.5894165 1.875q0.5 -0.875 1.5 -1.453125q1.0 -0.59375 2.3125 -0.59375q1.375 0 2.484375 0.65625q1.109375 0.65625 1.734375 1.84375q0.640625 1.171875 0.640625 2.734375q0 1.5625 -0.640625 2.78125q-0.625 1.203125 -1.734375 1.875q-1.109375 0.671875 -2.484375 0.671875q-1.296875 0 -2.296875 -0.578125q-1.0 -0.59375 -1.515625 -1.484375l0 6.734375l-1.703125 0l0 -15.0625l1.703125 0l0 1.875zm6.9375 3.1875q0 -1.15625 -0.46875 -2.0q-0.46875 -0.859375 -1.265625 -1.3125q-0.78125 -0.453125 -1.734375 -0.453125q-0.9375 0 -1.734375 0.46875q-0.796875 0.453125 -1.265625 1.328125q-0.46875 0.859375 -0.46875 2.0q0 1.15625 0.46875 2.03125q0.46875 0.859375 1.265625 1.3125q0.796875 0.453125 1.734375 0.453125q0.953125 0 1.734375 -0.453125q0.796875 -0.453125 1.265625 -1.3125q0.46875 -0.875 0.46875 -2.0625zm6.0335083 -3.671875l0 6.03125q0 0.75 0.3125 1.0625q0.328125 0.296875 1.109375 0.296875l1.25 0l0 1.4375l-1.53125 0q-1.40625 0 -2.125 -0.65625q-0.703125 -0.65625 -0.703125 -2.140625l0 -6.03125l-1.328125 0l0 -1.390625l1.328125 0l0 -2.578125l1.6875 0l0 2.578125l2.671875 0l0 1.390625l-2.671875 0zm16.94397 -1.453125q-0.40625 -2.0625 -2.546875 -2.0625q-1.671875 0 -2.5 1.28125q-0.8125 1.265625 -0.796875 4.203125q0.4375 -0.96875 1.4375 -1.515625q1.0 -0.5625 2.234375 -0.5625q1.90625 0 3.046875 1.203125q1.15625 1.1875 1.15625 3.296875q0 1.265625 -0.5 2.28125q-0.484375 1.0 -1.484375 1.59375q-1.0 0.59375 -2.40625 0.59375q-1.921875 0 -3.015625 -0.84375q-1.078125 -0.859375 -1.515625 -2.375q-0.421875 -1.515625 -0.421875 -3.734375q0 -6.84375 4.78125 -6.84375q1.828125 0 2.875 0.984375q1.046875 0.984375 1.234375 2.5l-1.578125 0zm-2.53125 2.78125q-0.8125 0 -1.515625 0.328125q-0.703125 0.328125 -1.140625 1.0q-0.4375 0.65625 -0.4375 1.59375q0 1.421875 0.8125 2.3125q0.828125 0.890625 2.359375 0.890625q1.296875 0 2.0625 -0.8125q0.78125 -0.8125 0.78125 -2.203125q0 -1.453125 -0.75 -2.28125q-0.734375 -0.828125 -2.171875 -0.828125z" fill-rule="nonzero"/><path fill="#000000" fill-opacity="0.0" d="m667.98804 167.60892l1.1338501 54.582687" fill-rule="evenodd"/><path stroke="#000000" stroke-width="3.0" stroke-linejoin="round" stroke-linecap="butt" d="m667.98804 167.60892l0.8977051 43.215134" fill-rule="evenodd"/><path fill="#000000" stroke="#000000" stroke-width="3.0" stroke-linecap="butt" d="m669.09076 220.69193c-2.7249756 0.056610107 -4.9798584 -2.1065063 -5.036438 -4.831436c-0.056640625 -2.724945 2.1065063 -4.979828 4.831421 -5.036438c2.7249146 -0.056610107 4.9797974 2.1065063 5.036438 4.8314514c0.05657959 2.7249298 -2.1065063 4.9798126 -4.831421 5.0364227z" fill-rule="nonzero"/><path fill="#000000" fill-opacity="0.0" d="m715.6116 0l201.48029 0l0 64.62992l-201.48029 0z" fill-rule="evenodd"/><path fill="#000000" d="m727.7522 15.294998l0 4.34375l4.734375 0l0 1.40625l-4.734375 0l0 4.46875l5.296875 0l0 1.40625l-7.0 0l0 -13.015625l7.0 0l0 1.390625l-5.296875 0zm7.2268677 5.109375q0 -1.890625 0.859375 -3.40625q0.859375 -1.53125 2.34375 -2.390625q1.484375 -0.859375 3.296875 -0.859375q2.125 0 3.703125 1.03125q1.59375 1.015625 2.328125 2.90625l-2.046875 0q-0.53125 -1.171875 -1.546875 -1.796875q-1.015625 -0.640625 -2.4375 -0.640625q-1.359375 0 -2.453125 0.640625q-1.078125 0.625 -1.703125 1.796875q-0.609375 1.15625 -0.609375 2.71875q0 1.546875 0.609375 2.71875q0.625 1.171875 1.703125 1.8125q1.09375 0.625 2.453125 0.625q1.421875 0 2.4375 -0.625q1.015625 -0.625 1.546875 -1.796875l2.046875 0q-0.734375 1.859375 -2.328125 2.875q-1.578125 1.015625 -3.703125 1.015625q-1.8125 0 -3.296875 -0.84375q-1.484375 -0.84375 -2.34375 -2.359375q-0.859375 -1.515625 -0.859375 -3.421875zm28.230774 -6.390625l0 12.90625l-1.703125 0l0 -9.625l-4.28125 9.625l-1.203125 0l-4.296875 -9.640625l0 9.640625l-1.703125 0l0 -12.90625l1.828125 0l4.78125 10.671875l4.765625 -10.671875l1.8125 0zm10.563049 10.015625l-5.671875 0l-1.046875 2.890625l-1.796875 0l4.703125 -12.921875l1.96875 0l4.671875 12.921875l-1.78125 0l-1.046875 -2.890625zm-0.484375 -1.375l-2.359375 -6.578125l-2.34375 6.578125l4.703125 0zm9.496155 4.390625q-1.296875 0 -2.3125 -0.453125q-1.015625 -0.453125 -1.59375 -1.265625q-0.578125 -0.8125 -0.59375 -1.875l1.8125 0q0.09375 0.90625 0.75 1.53125q0.671875 0.625 1.9375 0.625q1.203125 0 1.90625 -0.59375q0.703125 -0.609375 0.703125 -1.5625q0 -0.75 -0.421875 -1.21875q-0.40625 -0.46875 -1.015625 -0.703125q-0.609375 -0.25 -1.65625 -0.515625q-1.296875 -0.34375 -2.078125 -0.671875q-0.765625 -0.34375 -1.3125 -1.0625q-0.546875 -0.71875 -0.546875 -1.9375q0 -1.0625 0.53125 -1.875q0.546875 -0.828125 1.515625 -1.265625q0.984375 -0.453125 2.265625 -0.453125q1.828125 0 2.984375 0.921875q1.171875 0.90625 1.3125 2.421875l-1.859375 0q-0.09375 -0.75 -0.78125 -1.3125q-0.6875 -0.578125 -1.828125 -0.578125q-1.0625 0 -1.734375 0.5625q-0.671875 0.546875 -0.671875 1.53125q0 0.703125 0.390625 1.15625q0.40625 0.453125 0.984375 0.6875q0.59375 0.21875 1.65625 0.53125q1.296875 0.34375 2.078125 0.6875q0.78125 0.34375 1.34375 1.0625q0.5625 0.71875 0.5625 1.953125q0 0.953125 -0.515625 1.796875q-0.5 0.828125 -1.484375 1.359375q-0.984375 0.515625 -2.328125 0.515625zm6.185608 -5.25q0 -1.59375 0.640625 -2.765625q0.640625 -1.1875 1.765625 -1.84375q1.125 -0.65625 2.578125 -0.65625q1.890625 0 3.109375 0.921875q1.21875 0.90625 1.609375 2.53125l-1.828125 0q-0.265625 -0.9375 -1.015625 -1.46875q-0.75 -0.546875 -1.875 -0.546875q-1.453125 0 -2.359375 1.0q-0.890625 1.0 -0.890625 2.828125q0 1.84375 0.890625 2.859375q0.90625 1.0 2.359375 1.0q1.125 0 1.859375 -0.515625q0.75 -0.53125 1.03125 -1.5l1.828125 0q-0.40625 1.5625 -1.640625 2.515625q-1.234375 0.9375 -3.078125 0.9375q-1.453125 0 -2.578125 -0.65625q-1.125 -0.65625 -1.765625 -1.84375q-0.640625 -1.203125 -0.640625 -2.796875zm13.668091 -3.4375q0.4375 -0.875 1.265625 -1.359375q0.84375 -0.484375 2.03125 -0.484375l0 1.75l-0.453125 0q-2.84375 0 -2.84375 3.09375l0 5.5625l-1.703125 0l0 -10.21875l1.703125 0l0 1.65625zm6.1306763 -3.328125q-0.484375 0 -0.828125 -0.328125q-0.328125 -0.34375 -0.328125 -0.828125q0 -0.484375 0.328125 -0.8125q0.34375 -0.34375 0.828125 -0.34375q0.46875 0 0.796875 0.34375q0.328125 0.328125 0.328125 0.8125q0 0.484375 -0.328125 0.828125q-0.328125 0.328125 -0.796875 0.328125zm0.828125 1.671875l0 10.21875l-1.703125 0l0 -10.21875l1.703125 0zm4.5894165 1.875q0.5 -0.875 1.5 -1.453125q1.0 -0.59375 2.3125 -0.59375q1.375 0 2.484375 0.65625q1.109375 0.65625 1.734375 1.84375q0.640625 1.171875 0.640625 2.734375q0 1.5625 -0.640625 2.78125q-0.625 1.203125 -1.734375 1.875q-1.109375 0.671875 -2.484375 0.671875q-1.296875 0 -2.296875 -0.578125q-1.0 -0.59375 -1.515625 -1.484375l0 6.734375l-1.703125 0l0 -15.0625l1.703125 0l0 1.875zm6.9375 3.1875q0 -1.15625 -0.46875 -2.0q-0.46875 -0.859375 -1.265625 -1.3125q-0.78125 -0.453125 -1.734375 -0.453125q-0.9375 0 -1.734375 0.46875q-0.796875 0.453125 -1.265625 1.328125q-0.46875 0.859375 -0.46875 2.0q0 1.15625 0.46875 2.03125q0.46875 0.859375 1.265625 1.3125q0.796875 0.453125 1.734375 0.453125q0.953125 0 1.734375 -0.453125q0.796875 -0.453125 1.265625 -1.3125q0.46875 -0.875 0.46875 -2.0625zm6.0335083 -3.671875l0 6.03125q0 0.75 0.3125 1.0625q0.328125 0.296875 1.109375 0.296875l1.25 0l0 1.4375l-1.53125 0q-1.40625 0 -2.125 -0.65625q-0.703125 -0.65625 -0.703125 -2.140625l0 -6.03125l-1.328125 0l0 -1.390625l1.328125 0l0 -2.578125l1.6875 0l0 2.578125l2.671875 0l0 1.390625l-2.671875 0zm9.22522 7.46875q2.375 -1.90625 3.703125 -3.125q1.34375 -1.21875 2.265625 -2.546875q0.9375 -1.34375 0.9375 -2.625q0 -1.21875 -0.59375 -1.921875q-0.59375 -0.703125 -1.890625 -0.703125q-1.265625 0 -1.96875 0.796875q-0.703125 0.796875 -0.75 2.125l-1.65625 0q0.078125 -2.09375 1.265625 -3.234375q1.203125 -1.140625 3.09375 -1.140625q1.921875 0 3.046875 1.0625q1.125 1.0625 1.125 2.9375q0 1.546875 -0.921875 3.015625q-0.921875 1.453125 -2.109375 2.5625q-1.171875 1.109375 -3.0 2.59375l6.421875 0l0 1.40625l-8.96875 0l0 -1.203125zm10.930481 -5.53125q0 -3.203125 1.046875 -5.0q1.046875 -1.796875 3.65625 -1.796875q2.59375 0 3.640625 1.796875q1.046875 1.796875 1.046875 5.0q0 3.265625 -1.046875 5.078125q-1.046875 1.8125 -3.640625 1.8125q-2.609375 0 -3.65625 -1.8125q-1.046875 -1.8125 -1.046875 -5.078125zm7.703125 0q0 -1.609375 -0.21875 -2.734375q-0.203125 -1.140625 -0.875 -1.828125q-0.65625 -0.6875 -1.90625 -0.6875q-1.265625 0 -1.9375 0.6875q-0.65625 0.6875 -0.875 1.828125q-0.21875 1.125 -0.21875 2.734375q0 1.6875 0.21875 2.828125q0.21875 1.140625 0.875 1.828125q0.671875 0.6875 1.9375 0.6875q1.25 0 1.90625 -0.6875q0.671875 -0.6875 0.875 -1.828125q0.21875 -1.140625 0.21875 -2.828125zm3.5598755 -5.046875l0 -1.546875l3.515625 0l0 13.484375l-1.71875 0l0 -11.9375l-1.796875 0zm13.938721 1.65625q-0.40625 -2.0625 -2.546875 -2.0625q-1.671875 0 -2.5 1.28125q-0.8125 1.265625 -0.796875 4.203125q0.4375 -0.96875 1.4375 -1.515625q1.0 -0.5625 2.234375 -0.5625q1.90625 0 3.046875 1.203125q1.15625 1.1875 1.15625 3.296875q0 1.265625 -0.5 2.28125q-0.484375 1.0 -1.484375 1.59375q-1.0 0.59375 -2.40625 0.59375q-1.921875 0 -3.015625 -0.84375q-1.078125 -0.859375 -1.515625 -2.375q-0.421875 -1.515625 -0.421875 -3.734375q0 -6.84375 4.78125 -6.84375q1.828125 0 2.875 0.984375q1.046875 0.984375 1.234375 2.5l-1.578125 0zm-2.53125 2.78125q-0.8125 0 -1.515625 0.328125q-0.703125 0.328125 -1.140625 1.0q-0.4375 0.65625 -0.4375 1.59375q0 1.421875 0.8125 2.3125q0.828125 0.890625 2.359375 0.890625q1.296875 0 2.0625 -0.8125q0.78125 -0.8125 0.78125 -2.203125q0 -1.453125 -0.75 -2.28125q-0.734375 -0.828125 -2.171875 -0.828125zm19.218567 -0.0625l0 1.4375l-7.4375 0l0 -1.4375l7.4375 0zm12.198364 7.671875q-0.484375 0 -0.828125 -0.328125q-0.328125 -0.34375 -0.328125 -0.828125q0 -0.484375 0.328125 -0.8125q0.34375 -0.34375 0.828125 -0.34375q0.453125 0 0.78125 0.34375q0.328125 0.328125 0.328125 0.8125q0 0.484375 -0.328125 0.828125q-0.328125 0.328125 -0.78125 0.328125zm3.515625 0q-0.484375 0 -0.828125 -0.328125q-0.328125 -0.34375 -0.328125 -0.828125q0 -0.484375 0.328125 -0.8125q0.34375 -0.34375 0.828125 -0.34375q0.453125 0 0.78125 0.34375q0.328125 0.328125 0.328125 0.8125q0 0.484375 -0.328125 0.828125q-0.328125 0.328125 -0.78125 0.328125zm-7.0 0q-0.484375 0 -0.828125 -0.328125q-0.328125 -0.34375 -0.328125 -0.828125q0 -0.484375 0.328125 -0.8125q0.34375 -0.34375 0.828125 -0.34375q0.453125 0 0.78125 0.34375q0.328125 0.328125 0.328125 0.8125q0 0.484375 -0.328125 0.828125q-0.328125 0.328125 -0.78125 0.328125z" fill-rule="nonzero"/><path fill="#000000" d="m727.7522 37.694996l0 4.34375l4.734375 0l0 1.40625l-4.734375 0l0 4.46875l5.296875 0l0 1.40625l-7.0 0l0 -13.015625l7.0 0l0 1.390625l-5.296875 0zm11.992493 11.75q-1.296875 0 -2.3125 -0.453125q-1.015625 -0.453125 -1.59375 -1.265625q-0.578125 -0.8125 -0.59375 -1.875l1.8125 0q0.09375 0.90625 0.75 1.53125q0.671875 0.625 1.9375 0.625q1.203125 0 1.90625 -0.59375q0.703125 -0.609375 0.703125 -1.5625q0 -0.75 -0.421875 -1.21875q-0.40625 -0.46875 -1.015625 -0.703125q-0.609375 -0.25 -1.65625 -0.515625q-1.296875 -0.34375 -2.078125 -0.671875q-0.765625 -0.34375 -1.3125 -1.0625q-0.546875 -0.71875 -0.546875 -1.9375q0 -1.0625 0.53125 -1.875q0.546875 -0.828125 1.515625 -1.265625q0.984375 -0.453125 2.265625 -0.453125q1.828125 0 2.984375 0.921875q1.171875 0.90625 1.3125 2.421875l-1.859375 0q-0.09375 -0.75 -0.78125 -1.3125q-0.6875 -0.578125 -1.828125 -0.578125q-1.0625 0 -1.734375 0.5625q-0.671875 0.546875 -0.671875 1.53125q0 0.703125 0.390625 1.15625q0.40625 0.453125 0.984375 0.6875q0.59375 0.21875 1.65625 0.53125q1.296875 0.34375 2.078125 0.6875q0.78125 0.34375 1.34375 1.0625q0.5625 0.71875 0.5625 1.953125q0 0.953125 -0.515625 1.796875q-0.5 0.828125 -1.484375 1.359375q-0.984375 0.515625 -2.328125 0.515625zm14.841858 -12.28125l-5.1875 12.15625l-1.703125 0l5.25 -12.0l-7.203125 0l0 -1.453125l8.84375 0l0 1.296875zm9.264465 4.59375l0 1.4375l-7.4375 0l0 -1.4375l7.4375 0zm4.888977 -4.0625l0 4.34375l4.734375 0l0 1.40625l-4.734375 0l0 4.46875l5.296875 0l0 1.40625l-7.0 0l0 -13.015625l7.0 0l0 1.390625l-5.296875 0zm11.992493 11.75q-1.296875 0 -2.3125 -0.453125q-1.015625 -0.453125 -1.59375 -1.265625q-0.578125 -0.8125 -0.59375 -1.875l1.8125 0q0.09375 0.90625 0.75 1.53125q0.671875 0.625 1.9375 0.625q1.203125 0 1.90625 -0.59375q0.703125 -0.609375 0.703125 -1.5625q0 -0.75 -0.421875 -1.21875q-0.40625 -0.46875 -1.015625 -0.703125q-0.609375 -0.25 -1.65625 -0.515625q-1.296875 -0.34375 -2.078125 -0.671875q-0.765625 -0.34375 -1.3125 -1.0625q-0.546875 -0.71875 -0.546875 -1.9375q0 -1.0625 0.53125 -1.875q0.546875 -0.828125 1.515625 -1.265625q0.984375 -0.453125 2.265625 -0.453125q1.828125 0 2.984375 0.921875q1.171875 0.90625 1.3125 2.421875l-1.859375 0q-0.09375 -0.75 -0.78125 -1.3125q-0.6875 -0.578125 -1.828125 -0.578125q-1.0625 0 -1.734375 0.5625q-0.671875 0.546875 -0.671875 1.53125q0 0.703125 0.390625 1.15625q0.40625 0.453125 0.984375 0.6875q0.59375 0.21875 1.65625 0.53125q1.296875 0.34375 2.078125 0.6875q0.78125 0.34375 1.34375 1.0625q0.5625 0.71875 0.5625 1.953125q0 0.953125 -0.515625 1.796875q-0.5 0.828125 -1.484375 1.359375q-0.984375 0.515625 -2.328125 0.515625zm12.138733 -6.625l4.0 6.5l-1.921875 0l-3.125 -5.078125l-2.953125 5.078125l-1.890625 0l3.96875 -6.5l-3.984375 -6.5l1.90625 0l3.125 5.09375l2.984375 -5.09375l1.90625 0l-4.015625 6.5zm11.585571 0l4.0 6.5l-1.921875 0l-3.125 -5.078125l-2.953125 5.078125l-1.890625 0l3.96875 -6.5l-3.984375 -6.5l1.90625 0l3.125 5.09375l2.984375 -5.09375l1.90625 0l-4.015625 6.5z" fill-rule="nonzero"/><path fill="#000000" fill-opacity="0.0" d="m816.7987 86.03412l-0.44091797 -21.41732" fill-rule="evenodd"/><path stroke="#000000" stroke-width="3.0" stroke-linejoin="round" stroke-linecap="butt" d="m816.7987 86.03412l-0.20690918 -10.049728" fill-rule="evenodd"/><path fill="#000000" stroke="#000000" stroke-width="3.0" stroke-linecap="butt" d="m816.3887 66.11648c2.7249146 -0.056098938 4.979431 2.1074295 5.0355225 4.8323746c0.05609131 2.724945 -2.1074219 4.979431 -4.8323975 5.0355377c-2.7249146 0.056098938 -4.979431 -2.1074295 -5.0355225 -4.8323746c-0.05609131 -2.724945 2.1074219 -4.979431 4.8323975 -5.0355377z" fill-rule="nonzero"/><path fill="#000000" fill-opacity="0.0" d="m890.05774 222.1916l149.29138 0l0 42.01573l-149.29138 0z" fill-rule="evenodd"/><path fill="#000000" d="m902.19836 237.4866l0 4.34375l4.734375 0l0 1.40625l-4.734375 0l0 4.46875l5.296875 0l0 1.40625l-7.0 0l0 -13.015625l7.0 0l0 1.390625l-5.296875 0zm11.992554 11.75q-1.296875 0 -2.3125 -0.453125q-1.015625 -0.453125 -1.59375 -1.265625q-0.578125 -0.8125 -0.59375 -1.875l1.8125 0q0.09375 0.90625 0.75 1.53125q0.671875 0.625 1.9375 0.625q1.203125 0 1.90625 -0.59375q0.703125 -0.609375 0.703125 -1.5625q0 -0.75 -0.421875 -1.21875q-0.40625 -0.46875 -1.015625 -0.703125q-0.609375 -0.25 -1.65625 -0.515625q-1.296875 -0.34375 -2.078125 -0.671875q-0.765625 -0.34375 -1.3125 -1.0625q-0.546875 -0.71875 -0.546875 -1.9375q0 -1.0625 0.53125 -1.875q0.546875 -0.828125 1.515625 -1.265625q0.984375 -0.453125 2.265625 -0.453125q1.828125 0 2.984375 0.921875q1.171875 0.90625 1.3125 2.421875l-1.859375 0q-0.09375 -0.75 -0.78125 -1.3125q-0.6875 -0.578125 -1.828125 -0.578125q-1.0625 0 -1.734375 0.5625q-0.671875 0.546875 -0.671875 1.53125q0 0.703125 0.390625 1.15625q0.40625 0.453125 0.984375 0.6875q0.59375 0.21875 1.65625 0.53125q1.296875 0.34375 2.078125 0.6875q0.78125 0.34375 1.34375 1.0625q0.5625 0.71875 0.5625 1.953125q0 0.953125 -0.515625 1.796875q-0.5 0.828125 -1.484375 1.359375q-0.984375 0.515625 -2.328125 0.515625zm17.044983 -0.125l-1.6875 0l-6.828125 -10.359375l0 10.359375l-1.703125 0l0 -13.015625l1.703125 0l6.828125 10.328125l0 -10.328125l1.6875 0l0 13.015625zm12.22467 -5.5q0 0.484375 -0.0625 1.015625l-8.171875 0q0.09375 1.515625 1.03125 2.375q0.953125 0.84375 2.296875 0.84375q1.09375 0 1.828125 -0.515625q0.75 -0.515625 1.046875 -1.375l1.828125 0q-0.40625 1.484375 -1.640625 2.40625q-1.234375 0.921875 -3.0625 0.921875q-1.453125 0 -2.609375 -0.65625q-1.140625 -0.65625 -1.796875 -1.859375q-0.65625 -1.203125 -0.65625 -2.78125q0 -1.59375 0.640625 -2.78125q0.640625 -1.203125 1.78125 -1.84375q1.140625 -0.640625 2.640625 -0.640625q1.453125 0 2.5625 0.640625q1.125 0.625 1.734375 1.734375q0.609375 1.109375 0.609375 2.515625zm-1.75 -0.359375q0 -0.96875 -0.4375 -1.671875q-0.421875 -0.703125 -1.171875 -1.0625q-0.734375 -0.359375 -1.625 -0.359375q-1.28125 0 -2.1875 0.828125q-0.90625 0.8125 -1.03125 2.265625l6.453125 0zm9.316895 5.859375l-2.421875 -3.8125l-2.328125 3.8125l-1.765625 0l3.296875 -5.078125l-3.296875 -5.140625l1.921875 0l2.421875 3.78125l2.3125 -3.78125l1.765625 0l-3.28125 5.046875l3.296875 5.171875l-1.921875 0zm5.6707153 -8.828125l0 6.03125q0 0.75 0.3125 1.0625q0.328125 0.296875 1.109375 0.296875l1.25 0l0 1.4375l-1.53125 0q-1.40625 0 -2.125 -0.65625q-0.703125 -0.65625 -0.703125 -2.140625l0 -6.03125l-1.328125 0l0 -1.390625l1.328125 0l0 -2.578125l1.6875 0l0 2.578125l2.671875 0l0 1.390625l-2.671875 0z" fill-rule="nonzero"/><path fill="#000000" fill-opacity="0.0" d="m965.5916 167.60892l-0.881897 54.582687" fill-rule="evenodd"/><path stroke="#000000" stroke-width="3.0" stroke-linejoin="round" stroke-linecap="butt" d="m965.5916 167.60892l-0.6982422 43.214157" fill-rule="evenodd"/><path fill="#000000" stroke="#000000" stroke-width="3.0" stroke-linecap="butt" d="m964.73395 220.6918c-2.7251587 -0.044036865 -4.8986206 -2.28891 -4.8546143 -5.014084c0.044006348 -2.725174 2.2888794 -4.8986664 5.014099 -4.8546295c2.7251587 0.044021606 4.8986206 2.28891 4.8546143 5.0140686c-0.044067383 2.725174 -2.2889404 4.8986664 -5.014099 4.854645z" fill-rule="nonzero"/></g></svg>